<?xml version="1.0" standalone="no"?>
<!DOCTYPE svg PUBLIC "-//W3C//DTD SVG 1.1//EN" "http://www.w3.org/Graphics/SVG/1.1/DTD/svg11.dtd" >
<svg xmlns="http://www.w3.org/2000/svg" xmlns:xlink="http://www.w3.org/1999/xlink" version="1.1">
<metadata></metadata>
<defs>
<font id="unicornflakesmedium" horiz-adv-x="1071" >
<font-face units-per-em="2048" ascent="1638" descent="-410" />
<missing-glyph horiz-adv-x="614" />
<glyph horiz-adv-x="0" />
<glyph unicode="&#xd;" horiz-adv-x="681" />
<glyph unicode=" "  horiz-adv-x="614" />
<glyph unicode="&#x09;" horiz-adv-x="614" />
<glyph unicode="&#xa0;" horiz-adv-x="614" />
<glyph unicode="!" horiz-adv-x="425" d="M131 852q-6 494 16 623q4 27 26 41t46.5 10t38.5 -25.5t10 -46.5q-20 -119 -14 -600q8 -424 18 -543q2 -25 -13 -45t-40.5 -22t-45 14t-23.5 41q-10 123 -19 553zM139 45q-4 25 10.5 46.5t38.5 25.5q35 6 58 -21q37 -14 37 -55q0 -12 -2 -23q-2 -16 -13 -30 q-25 -33 -63 -27q-23 4 -37 23q-23 23 -29 61z" />
<glyph unicode="&#x22;" horiz-adv-x="606" d="M133 1203.5v56.5q0 25 2 69q2 80 2 121q0 25 17.5 43t43 18t44 -18t18.5 -43q0 -41 -2 -125q-2 -45 -2 -68v-53q0 -27 -18.5 -44t-43 -17t-43 17.5t-18.5 43zM334 1430q-4 25 11 45t40 24t45.5 -11t24.5 -40q10 -66 10 -170v-33q-2 -35 -2 -53q0 -25 -17.5 -43.5 t-43 -18.5t-44 18.5t-18.5 43.5q0 18 2 55v33q0 94 -8 150z" />
<glyph unicode="#" horiz-adv-x="1005" d="M97 775.5q-5 25.5 8.5 47t37.5 25.5q70 16 172 24q-12 162 -36 291q-6 25 8 46.5t38.5 26.5t46 -9.5t25.5 -38.5q29 -137 41 -307q27 0 68 2q18 2 26 2h9q-2 176 16 321q4 25 24.5 40.5t46 12t41 -23.5t11.5 -45q-18 -133 -16 -299q68 6 120 12q25 4 45.5 -12.5t23.5 -41 t-12.5 -45t-41.5 -24.5q-57 -6 -131 -12q0 -37 4 -80q2 -33 4 -74q72 8 112 19q25 6 46.5 -8.5t27.5 -39t-8 -46t-39 -27.5q-49 -10 -131 -20q12 -195 12 -312q0 -25 -18.5 -43t-44 -18t-43 18.5t-17.5 42.5q0 113 -12 299q-33 -2 -69 -4l-46 -4v-82v-143q0 -25 -18 -43.5 t-44 -18.5t-43 18.5t-17 43.5v145v74q-92 -4 -154 -4q-25 0 -43 18.5t-18 44t18 43t43 17.5q61 0 154 4v94q-2 35 -2 68q-90 -8 -152 -21q-25 -6 -46.5 7.5t-26.5 39zM444 758q0 -37 2 -74v-88q18 0 37 2q37 2 70 4q-2 45 -4 80q-2 41 -4 80h-6q-8 0 -29 -2q-41 -2 -66 -2z " />
<glyph unicode="$" horiz-adv-x="872" d="M271.5 420.5q2.5 25.5 22 41t45.5 12.5t40 -21q29 -35 59 -54q51 -29 103 -10q31 12 45 39q10 18 18 59q12 74 -24 136q-27 49 -99 112q-6 4 -29.5 24.5t-25.5 20.5q-31 29 -51 49q-39 43 -53 84q-29 82 -12.5 159t69.5 126q10 10 20 19v22v23v22q-2 27 14.5 46.5 t41 21.5t44 -14.5t21.5 -41.5q2 -12 2 -36v-11q68 -6 121 -61q18 -16 18.5 -42t-18 -44.5t-44.5 -18t-44 18.5q-47 49 -92 8q-27 -25 -34 -67t9 -91q4 -16 27 -39q14 -16 43 -39q0 -2 23.5 -21t29.5 -26q88 -76 125 -143q59 -100 39 -217q-10 -61 -31 -98q-37 -66 -108 -93 q-29 -12 -58 -16v-33v-10q2 -25 -15 -43t-43 -19t-44 16t-20 44v8q0 33 -3 49v9q-14 6 -26 12q-33 20 -62 47q-16 16 -30 35q-16 20 -13.5 45.5z" />
<glyph unicode="%" horiz-adv-x="1148" d="M131 946q0 55 21 105q14 39 55 61q18 10 53 21h2q4 2 6 2q14 10 33 10q113 0 158 -82q39 -70 8 -154q-31 -82 -105 -112q-88 -37 -176 24q-33 23 -45 62q-10 29 -10 63zM254 946q0 -14 2 -22l2 -2q31 -23 55 -13q27 12 39 45q10 29 0 50q-4 6 -12 10q-8 6 -23 8 q-8 -4 -22 -8q-23 -6 -29 -10h-2q-10 -27 -10 -58zM358 221q74 217 154 516q109 395 106 508q0 25 17.5 43.5t43.5 19.5t44 -17.5t18 -43.5q2 -129 -110 -542q-82 -301 -156 -523q-8 -25 -30.5 -36t-46 -2.5t-35 31t-5.5 46.5zM657 467q0 55 21 106q16 39 55 62q18 8 55 18 v2h7q14 10 34 11q111 0 158 -82q37 -68 6 -152q-31 -82 -104 -113q-88 -37 -176 25q-31 23 -45 62q-10 27 -11 61zM780 467q0 -12 2 -21q2 -2 2 -4q33 -20 57.5 -10t37.5 43q12 31 0 49q-4 8 -12.5 12.5t-22.5 6.5q-6 -2 -23 -6q-23 -6 -28 -11l-2 -2q-10 -27 -11 -57z" />
<glyph unicode="&#x26;" horiz-adv-x="983" d="M158 311q-43 127 30 271q29 51 76 112q29 35 70 80q-98 154 -123 256q-23 98 16 165t135 89q119 27 197 -37q145 -123 72 -286q-25 -55 -82 -125q-20 -27 -51 -62q-4 -4 -11 -10q35 -47 78 -107q14 74 37 134q8 25 31.5 35t47.5 0.5t35 -33t1 -45.5q-18 -51 -31 -115 q-8 -50 -14 -113q61 -80 63 -82q84 -111 101 -153q10 -23 -0.5 -46.5t-34 -32.5t-47 1t-32.5 33.5t-69 101.5q0 -10 -2 -20q-14 -74 -41 -117q-76 -117 -260 -72q-63 16 -117.5 66.5t-74.5 111.5zM274 350q10 -33 41 -60.5t66 -35.5q59 -16 92 -8q20 6 33 24q14 25 24 72 q6 37 13 119q2 12 2 22q-51 66 -70 90q-39 54 -72 97q-74 -86 -106 -148q-49 -94 -23 -172zM332 1059q16 -74 86 -189q20 23 35 43q47 57 67 99q16 41 10 69q-6 35 -49 70q-31 27 -92 12q-45 -10 -57 -33q-12 -25 0 -71z" />
<glyph unicode="'" horiz-adv-x="401" d="M133 1203.5v56.5q0 25 2 69q2 80 2 121q0 25 17.5 43t43 18t44 -18t18.5 -43q0 -41 -2 -125q-2 -45 -2 -68v-53q0 -27 -18.5 -44t-43 -17t-43 17.5t-18.5 43z" />
<glyph unicode="(" horiz-adv-x="614" d="M158 678q8 262 62 493.5t140 356.5q14 20 40 24t46.5 -10t25.5 -39t-9 -45q-76 -109 -126 -324.5t-56 -457.5q-6 -260 40 -461t134 -291q18 -16 18 -41.5t-18.5 -44t-43 -18.5t-42.5 18q-117 117 -172 361q-45 211 -39 479z" />
<glyph unicode=")" horiz-adv-x="616" d="M94.5 1477.5q-2.5 25.5 15 45t42 21.5t45.5 -14q125 -109 196 -346q63 -207 78 -475q12 -262 -23.5 -497t-113.5 -366q-12 -23 -37 -28.5t-46.5 6.5t-28.5 36.5t7 47.5q66 113 98.5 332t20.5 462q-12 258 -73.5 455t-157.5 279q-20 16 -22.5 41.5z" />
<glyph unicode="*" horiz-adv-x="780" d="M118 1094.5q-9 23.5 1 47.5t33 32q37 14 90 36q8 4 26 11q-55 51 -114 90q-20 14 -25.5 39.5t9 46t39 25.5t46.5 -9q45 -31 88 -65q6 59 15 106q4 27 24.5 41t45 11t40 -23.5t10.5 -46.5q-8 -55 -18 -150q76 31 127 51q25 8 48.5 -2t31.5 -33.5t-2 -47t-35 -31.5 q-45 -18 -106 -43l6 -6q10 -10 55 -57.5t53 -53.5q16 -18 16.5 -44t-18 -44.5t-43 -17.5t-43.5 20q-8 6 -53 53t-55 57q-2 2 -4 5q-14 -96 -33 -174q-6 -25 -28.5 -38.5t-47.5 -7t-38 29t-7 46.5q16 66 29 146q-49 -20 -82 -35q-25 -8 -48.5 2t-32.5 33.5z" />
<glyph unicode="+" horiz-adv-x="909" d="M162 787.5q-2 25.5 15.5 44t41.5 20.5q57 4 164 6h2h12v94q-2 82 -16 144q-4 25 9 46t39 26.5t47.5 -8t25.5 -38.5q16 -74 18 -168v-90q94 4 176 15q27 4 46.5 -11.5t23.5 -40t-11.5 -45t-39.5 -24.5q-92 -12 -199 -19q-2 -72 -2 -116q2 -82 12 -142q4 -25 -10 -46 t-38.5 -26.5t-46 9t-25.5 41.5q-12 70 -15 162q0 47 2 114h-4h-2q-104 -2 -160 -6q-25 0 -44 16.5t-21 42z" />
<glyph unicode="," horiz-adv-x="389" d="M87 -173.5q-9 23.5 1 48.5q31 72 35 102q6 43 -19 72q-16 20 -14 45t21.5 41.5t45.5 14t42 -20.5q59 -72 47 -168q-6 -33 -21 -72q-8 -23 -24 -63q-10 -23 -34 -33t-47.5 0t-32.5 33.5z" />
<glyph unicode="-" horiz-adv-x="776" d="M135 772.5q-2 24.5 14.5 44t43.5 21.5q43 4 126 6q2 0 3 2q156 4 241 20q25 4 45.5 -11t25.5 -39.5t-10.5 -45t-39.5 -27.5q-61 -10 -133 -16q-43 -2 -125 -4q-82 -4 -125 -6q-25 -2 -44.5 14.5t-21.5 41z" />
<glyph unicode="." horiz-adv-x="376" d="M90 45q-4 25 10.5 46.5t38.5 25.5q35 6 58 -21q37 -14 36 -55v-23q-4 -16 -14 -30q-23 -33 -63 -27q-20 4 -37 23q-20 23 -29 61z" />
<glyph unicode="/" horiz-adv-x="806" d="M12 52.5q-8 23.5 2 47.5q66 135 256 625q8 23 17 43q70 182 155 412q27 74 62 161q35 92 41 111q8 25 31.5 35t47 1t34.5 -32.5t1 -46.5l-41 -111q-33 -90 -61 -161q-86 -229 -156 -414q-10 -20 -16 -41q-193 -496 -260 -637q-10 -23 -33.5 -31t-47.5 3.5t-32 35z" />
<glyph unicode="0" horiz-adv-x="901" d="M111 643q-14 258 41 459q29 109 75 180q55 84 135 109q100 33 185 -17q72 -41 121 -137q82 -164 90 -436q8 -260 -56 -473q-76 -252 -217 -303q-14 -7 -28 -5q-82 -6 -148 48q-61 49 -106 145q-78 168 -92 430zM233 651q14 -240 82 -387q31 -70 70 -100q33 -27 68 -21h2 q78 43 129 219q57 195 51 437q-6 244 -78 381q-33 66 -72 88q-37 20 -86 6q-82 -27 -129 -205q-49 -180 -37 -418z" />
<glyph unicode="1" horiz-adv-x="415" d="M135 702q-4 539 12 639q4 25 25 40.5t46.5 11.5t39.5 -24.5t10 -47.5q-14 -90 -10 -616q4 -496 14 -601q2 -27 -14 -46t-40.5 -21t-44 14.5t-23.5 40.5q-8 111 -15 610z" />
<glyph unicode="2" horiz-adv-x="884" d="M137 1235q12 86 80 133q55 39 117 51q84 16 141 -24q55 -41 78 -125q18 -66 16 -160q-4 -154 -61 -389q-27 -111 -64 -240q-35 -113 -88 -276q-14 -41 -18 -53q41 -4 94 -2q152 2 236 20q25 6 46 -8.5t26 -39t-8 -46t-38 -27.5q-94 -20 -260 -22q-72 -2 -123 2 q-29 4 -47 8q-12 4 -22 8q-20 10 -33 29q-12 20 -8 45q2 4 4 12q2 10 8 27q4 18 27 86q53 160 86 272q37 127 63 234q53 223 57 364q4 147 -43 180q-14 10 -49 3t-65 -29q-25 -16 -29 -51q-4 -25 -24.5 -40.5t-46 -11.5t-40 23.5t-12.5 46.5z" />
<glyph unicode="3" horiz-adv-x="849" d="M158.5 1327.5q6.5 24.5 29.5 34.5q55 31 136 18q55 -8 116 -34q72 -33 115 -108t45 -169q6 -150 -80 -240q45 -37 84 -92q18 -27 35 -57q68 -121 69 -247t-65 -226q-63 -100 -170.5 -154.5t-234.5 -48.5q-25 0 -42.5 19.5t-16.5 45t19.5 42t43.5 16.5q94 -4 173 35 t124 110q47 72 46 164t-53 185q-14 25 -28 47q-43 57 -90 90q-14 8 -27 12l-4 4v-2q-47 12 -46 61.5t50 59.5h4q4 2 10 2l5 2h4q33 20 52 64.5t17 101.5q-4 61 -27.5 107.5t-62.5 62.5q-98 45 -143 20q-23 -10 -46.5 -3t-35.5 30t-5.5 47.5z" />
<glyph unicode="4" horiz-adv-x="911" d="M143 1280q-4 25 11.5 46.5t40 25.5t46 -11.5t25.5 -40.5q33 -199 27 -362q-2 -12 -4 -59h2l20 2q20 4 27 6q104 14 211 20q-6 252 -21 439q-2 25 15.5 44t42 21t44 -14.5t21.5 -40.5q14 -190 21 -445h35q25 0 43 -18.5t18 -43t-18.5 -43t-42.5 -18.5h-33v-51v-391 q-2 -158 -2 -229q0 -25 -17.5 -43.5t-43 -18.5t-44 18.5t-18.5 43.5q0 72 2 229v391v47q-98 -6 -195 -20q-6 0 -26 -2l-21 -4q-25 -4 -37 -4q-23 -2 -39 0q-29 6 -47 26q-16 18 -20 45q-2 14 0 35q0 4 2 39t2 45q6 150 -27 336z" />
<glyph unicode="5" horiz-adv-x="849" d="M127 1263q4 62 31 101q31 43 92 55q29 6 98 8q74 2 113 7q27 2 46 -14.5t21 -42t-14 -45t-41 -21.5q-45 -4 -121 -6q-59 -2 -78 -7q-14 -2 -16 -6t-4 -12q-4 -12 -4 -33q-2 -49 10 -141q4 -20 4 -78q2 -27 2 -39q0 -29 2 -47q129 53 242 -31q94 -72 149 -219 q51 -139 48 -282q-4 -160 -78 -254q-37 -47 -105 -66q-47 -12 -112 -10q-37 2 -93 8q-59 6 -71 6q-25 0 -43.5 18.5t-18.5 44t18.5 43t43.5 17.5q16 0 41 -2q8 0 22 -2h4q6 -2 11.5 -2t7.5 -2q51 -6 82 -6q92 -2 114 28q49 61 53.5 181t-38.5 237q-43 115 -109 164 q-59 43 -127 12q-2 0 -2 -2q-8 -4 -10 -6q-8 -6 -16 -10q-23 -10 -43 -10q-43 0 -66 37q-16 27 -22 73q-4 31 -7 78q0 12 -2 41q0 49 -2 64q-16 111 -12 173z" />
<glyph unicode="6" horiz-adv-x="874" d="M141 379q-37 219 21 493q57 281 178 424q72 88 156 107q96 20 190 -51q20 -16 23.5 -41t-12 -45.5t-41.5 -23.5t-46 11q-47 37 -90 29q-41 -8 -86 -63q-80 -96 -133 -289h2q96 37 177 17.5t141 -93.5q100 -119 110 -321.5t-72 -337.5q-51 -80 -126.5 -115t-170 -14.5 t-151.5 114.5q-49 78 -70 199zM254 641q-8 -135 8 -242q33 -193 127 -213q106 -25 166 74q61 102 53 265t-82 251q-70 84 -176 41q-31 -12 -60.5 -63.5t-29.5 -87.5q0 -13 -6 -25z" />
<glyph unicode="7" horiz-adv-x="833" d="M171 1313.5q-5 25.5 9 46t39 26.5q127 25 262 15q92 -6 144 -35q41 -25 57 -62.5t4 -82.5q-4 -12 -40 -130t-79 -261.5t-55 -182.5q0 -2 -2 -4q-154 -512 -174 -571q-8 -23 -30.5 -34t-47.5 -3t-36 30.5t-3 47.5q20 55 174 565q0 4 2 6q10 37 53.5 179.5t79 260 t39.5 131.5l-2 2q-29 16 -92 21q-121 8 -231 -12q-25 -4 -45.5 9t-25.5 38.5z" />
<glyph unicode="8" horiz-adv-x="819" d="M166 260q-10 92 16 211q39 166 123 303q-94 88 -129 209q-39 145 14 277q27 66 72 109.5t100 55.5q131 29 234 -120q35 -51 33 -148q0 -47 -13 -123q-8 -66 -38 -116q-23 -39 -66 -84q-21 -21 -35 -39q25 -23 37 -41q88 -141 127 -252q53 -158 27 -299 q-16 -76 -71.5 -124t-133.5 -56q-47 -4 -101 4q-76 12 -112 47q-72 68 -84 186zM295 1016q23 -81 84 -144q8 8 18 21q2 0 5.5 3t7.5 5l2 4q6 8 12 13q61 68 72 135q10 66 10 106q2 57 -10 76q-33 45 -64 63q-23 10 -43 7q-51 -10 -84 -91q-39 -94 -10 -198zM303 444 q-49 -207 31 -280l2 -2h2q4 -4 10 -6q14 -4 33 -9q39 -6 70 -2q82 8 96 82q20 109 -23 236q-33 96 -114 225q-3 2 -9 8q-68 -117 -98 -252z" />
<glyph unicode="9" horiz-adv-x="790" d="M141 1094q12 152 97 243q102 111 245 70q18 18 43 20q33 0 52 -24q22 -18 22 -47q2 -66 10 -205v-2q10 -207 15 -270q8 -176 12 -312q12 -279 12 -467q0 -27 -18.5 -44t-44 -17t-43 17.5t-17.5 43.5q0 184 -12 463q-2 82 -6 174q-29 -20 -64 -24q-164 -12 -247 121 q-70 106 -56 260zM264 1083q-10 -113 35 -184q45 -70 137 -63q4 4 8 12q14 29 23 86q12 94 4 309v41q-8 0 -16 2q-74 25 -125 -31q-57 -61 -66 -172z" />
<glyph unicode=":" horiz-adv-x="397" d="M111 492q-4 25 10 46t41 25q32 7 55 -18q37 -16 37 -58v-20q-4 -18 -12 -33q-25 -33 -66 -24q-20 4 -37 20q-20 23 -28 62zM111 926q-4 25 10 45t41 26q32 7 55 -20q37 -16 37 -55v-23q-4 -18 -12 -31q-25 -33 -66 -26q-20 4 -37 20q-20 23 -28 64z" />
<glyph unicode=";" horiz-adv-x="407" d="M103.5 243.5q-9.5 24.5 0.5 47.5q31 72 37 102q4 43 -20 72q-16 20 -14 46t21 41t45 13t42 -20q59 -72 47 -166q-4 -35 -18 -74q-8 -23 -27 -63q-10 -23 -33.5 -32t-47 0t-33 33.5zM111 926q-4 25 10 45t41 26q32 7 55 -20q37 -16 37 -55v-23q-4 -18 -12 -31 q-25 -33 -66 -26q-20 4 -37 20q-20 23 -28 64z" />
<glyph unicode="&#x3c;" horiz-adv-x="952" d="M158 741q2 14 8 25q4 8 12 16q6 8 21 21q18 14 59 47q6 4 25.5 19.5t40.5 29.5l18 14q57 43 96 76q29 20 51 41q123 100 168 154q14 20 40 23t45.5 -13t22.5 -42t-13 -44q-51 -66 -185 -174q-25 -18 -53 -41q-39 -33 -96 -76q-2 -2 -20.5 -16.5t-38 -28.5t-26.5 -19 l-14 -10q18 -10 43 -22q31 -14 80 -37q8 -4 29 -12t40 -17.5t21 -9.5q115 -51 177 -84q45 -25 75 -47q20 -14 24.5 -38.5t-10 -46t-39 -26t-44.5 10.5q-27 18 -66 39q-55 31 -168 79q-2 0 -20.5 9.5t-39 17.5t-28.5 12q-51 23 -84 39q-94 45 -131 78q-23 23 -20 53z" />
<glyph unicode="=" horiz-adv-x="798" d="M156 578.5q-2 25.5 14 45t43 21.5q45 2 129 6h2q154 4 240 21q25 4 45 -10.5t25 -40t-9 -46t-41 -24.5q-61 -12 -133 -16q-43 -4 -123 -7h-2q-82 -4 -125 -6q-25 -2 -44 14.5t-21 42zM156 806.5q-2 24.5 14 44t43 21.5q45 4 129 7h2q154 6 240 20q25 6 45 -9.5t25 -40 t-9 -45t-41 -26.5q-61 -10 -133 -16q-43 -2 -123 -6h-2q-82 -2 -125 -6q-25 -2 -44 15t-21 41.5z" />
<glyph unicode="&#x3e;" horiz-adv-x="901" d="M122 1088.5q-3 25.5 12.5 46t41 23.5t45.5 -13q41 -33 125 -80q39 -20 100 -51q2 -2 20.5 -11.5t38 -19.5t27.5 -14q49 -25 82 -43q90 -51 125 -86q23 -23 19 -54q-2 -14 -10 -24q-4 -8 -13 -17q-8 -6 -22 -16q-18 -16 -62 -45q-8 -6 -28.5 -19.5t-40.5 -25.5l-19 -14 q-59 -41 -102 -70q-31 -23 -58 -43q-123 -90 -170 -139q-16 -18 -41.5 -20.5t-44 15t-19.5 43.5t15 44q53 59 189 157q27 20 59 43q43 29 103 70q2 2 21.5 15.5t38.5 26.5t26.5 18.5t13.5 9.5q-16 10 -39 22q-31 18 -78 43q-8 4 -28.5 14.5t-39 19.5t-20.5 9q-61 33 -102 55 q-92 51 -142 91q-20 14 -23 39.5z" />
<glyph unicode="?" horiz-adv-x="899" d="M116 1235.5q-9 23.5 3 46.5l4 12q18 39 31 58q25 39 61 73q61 57 123.5 81t148.5 24q82 0 148 -55q53 -47 86 -125q29 -70 34 -148t-16 -141q-16 -45 -51 -96q-18 -29 -59 -78l-2 -2q-4 -4 -4 -6l-7 -7q-68 -84 -81 -131q-25 -86 -33 -204q-4 -78 -4 -215 q0 -27 -18.5 -44.5t-44 -17.5t-43 17.5t-17.5 44.5q0 141 4 223q10 131 37 229q14 47 45 96q20 31 59 78q4 4 6 8q2 2 4 7l2 2q74 88 91 137q14 39 10 95t-25 106q-45 104 -121 104q-63 0 -103 -15.5t-87 -56.5q-25 -25 -39 -47q-8 -14 -22 -45q-4 -8 -7 -12 q-10 -25 -34.5 -33t-47 3t-31.5 34.5zM358 31q-6 25 8.5 46t41.5 25q32 7 55 -18q39 -16 39 -57q0 -12 -2 -21q-4 -18 -13 -33q-25 -33 -63 -24q-23 4 -39 20q-20 23 -27 62z" />
<glyph unicode="@" horiz-adv-x="1232" d="M154 655q-35 188 6 363q45 193 166 295q72 59 157 82q66 16 166 16q223 0 342 -151q96 -123 101 -308q2 -166 -68 -272q-41 -63 -96 -78q-68 -18 -129 35q-21 18 -39 41q-10 -25 -25 -47q-43 -72 -96 -96q-63 -31 -121 6q-82 51 -104 198q-23 143 32 254q70 143 230 144 q23 0 40 -15.5t21 -38.5q20 -4 32.5 -20t14.5 -37v-2q2 -4 2 -8q2 -4 2 -6v-4v-2v-3v-40q4 -45 15 -87q25 -100 76 -145q8 -6 14 -8h2q4 0 8 4q8 8 19 23q47 74 47 202q-2 143 -74 234q-82 104 -246 104q-88 0 -142 -15.5t-101 -53.5q-90 -76 -126 -226.5t-6 -312.5 q33 -166 121 -268q92 -111 223 -119q74 -4 142 16q47 14 119 53q6 4 16 9l8 4l8 4q14 8 25 12q23 12 46.5 5t35.5 -30.5t4 -47t-31 -35.5q-8 -4 -22 -13l-8 -4q-2 0 -9 -4l-16 -8q-82 -45 -141 -61q-88 -27 -185 -21q-184 10 -309 160q-109 129 -147 323zM535 758 q6 -45 22 -78q12 -27 27 -35q0 -2 2 0q20 8 45 51q33 51 35 160q2 29 0 88v8q-2 19 -2 39q-2 8 -2 21q-72 -4 -107 -74q-37 -76 -20 -180z" />
<glyph unicode="A" d="M182 115q25 123 72 311q18 70 43 170q4 14 22.5 87t22.5 87q16 68 31 119q88 350 127 557v2q-4 27 11 46t40 24q33 6 53 -19q25 -23 21 -55q61 -403 213 -1006q8 -35 36 -133q12 -51 21 -82q23 -82 33 -141q4 -25 -10.5 -45.5t-40 -25.5t-46 10.5t-24.5 39.5 q-10 55 -31 132q-2 14 -8 30q-2 0 -4 -2q-84 -8 -260 -10q-8 0 -25 -2q-104 -2 -151 -4q-14 -61 -25 -115q-6 -25 -27.5 -39t-46 -9t-39 26.5t-8.5 46.5zM356 330q39 2 121 2q16 0 25 2q159 2 233 8q-8 35 -16 66q-90 360 -162 718q-27 -115 -65 -268q-12 -51 -31 -117 q-4 -16 -22.5 -88.5t-22.5 -87.5q-25 -100 -43 -168q-8 -37 -17 -67z" />
<glyph unicode="B" horiz-adv-x="778" d="M143 760q0 416 25 706q2 25 21.5 41.5t43.5 14.5q10 0 19 -4q13 1 26 1q139 0 220 -81q82 -82 82 -217q-2 -92 -43 -184.5t-109 -155.5q12 -4 21 -9q33 -12 45 -24q68 -57 104.5 -156.5t37.5 -215.5v-6q0 -112 -35 -208q-36 -98 -99 -156q-47 -39 -137 -63l-50 -10 q-35 -6 -43 -8q-20 -4 -28 -9q-12 -4 -23 -4q-21 0 -39 15q-35 16 -35 55q0 109 -2 328q-2 233 -2 350zM266 760q0 -117 2 -350q0 -180 2 -260l21 4q27 4 43 10q61 14 86 37q43 37 67.5 111.5t24.5 162.5t-25.5 162t-66.5 115h-2l-12 6q-14 4 -44 14q-2 2 -6 2 q-41 14 -55 19q-14 6 -22.5 10t-12.5 6v-49zM266 918h2l4 4q4 2 9 4q74 37 124 122t52 175q0 82 -45 127q-43 43 -127 45q-15 -209 -19 -477z" />
<glyph unicode="C" horiz-adv-x="886" d="M102 625q-11 80 -11 157q0 159 46 303q74 238 240 326q51 27 160 41q59 9 101 8q37 0 60 -6q25 -6 38.5 -28.5t6 -47t-29.5 -37t-47 -6.5q-11 3 -31 3q-30 0 -82 -7q-86 -12 -119 -31q-121 -61 -180 -251q-39 -125 -39 -263q0 -71 10 -145q31 -225 142 -365 q118 -149 297 -149h2q25 0 43 -18.5t18 -43t-18.5 -43t-42.5 -18.5q-240 0 -396 197q-133 166 -168 424z" />
<glyph unicode="D" horiz-adv-x="884" d="M137 1470q-2 25 14.5 44.5t41.5 21.5q19 2 37 2q189 0 323 -170q125 -156 170 -407q19 -113 19 -221q0 -124 -25 -242q-51 -244 -195 -355q-53 -41 -133 -88t-125 -61q-12 -6 -24 -4h-9q-25 0 -43 18.5t-18 42.5q0 168 -16 527q-6 119 -9 180q-9 201 -9 364q0 182 11 318 q-10 14 -10 30zM268 764q2 -61 8 -180q15 -308 17 -443q92 49 153 99q106 82 150 280q23 105 22 216q0 99 -18 204q-39 221 -143 352q-82 102 -189 119q-9 -122 -9 -283.5t9 -363.5z" />
<glyph unicode="E" horiz-adv-x="768" d="M188 285q-1 85 -1 192t1 236q4 242 9 432q4 205 10 229v6t-2 4q-4 27 10 47.5t41 24.5q55 10 106 10q22 0 44 -2q90 -8 153 -50q23 -14 28 -39t-9.5 -46.5t-40 -27t-45.5 9.5q-48 32 -128 32q-18 0 -38 -2v-4q-2 -18 -2 -47q-2 -55 -5 -147q-4 -125 -6 -285q16 2 43 4 q16 2 23 2q18 2 35 2q34 0 67 -8q25 -6 38 -27.5t8 -46t-26.5 -38t-45.5 -7.5q-19 4 -38 4q-13 0 -26 -2q-6 0 -20 -2q-35 -4 -58 -4q-2 -12 -2 -24q-1 -128 -1 -234t1 -190q0 -92 2 -144v-18q22 -3 54 -3q16 0 34 1q47 0 97 4q20 2 34 4q12 0 17 2q25 6 46 -7t27.5 -39 t-7 -47.5t-37.5 -27.5q-47 -10 -175 -12q-21 -1 -40 -1q-37 0 -64 3q-27 2 -45 8q-12 4 -23 10q-20 12 -30 31q-6 14 -8 43q-2 16 -3 45q-2 53 -2 146z" />
<glyph unicode="F" horiz-adv-x="825" d="M168 766v51q0 227 16 375q8 98 27 162q20 82 59 112q43 35 107 41q18 3 40 2q29 0 64 -4q20 -2 54 -6q68 -10 86 -10q27 0 44 -18.5t17 -44t-17.5 -43t-43.5 -17.5q-29 0 -105 10q-31 6 -49 8q-28 3 -50 3q-48 0 -67 -15q-2 -2 -6 -10q-8 -16 -14 -41q-14 -53 -25 -141 q-8 -86 -12 -207q8 0 26 2q34 2 62 2q42 0 72 -4q14 -2 26 -4q25 -6 39 -26.5t9 -45.5t-25.5 -39t-44.5 -10q-10 2 -19 2q-25 4 -60 4q-24 0 -52 -2q-27 -2 -35 -2v-84q4 -385 33 -719q2 -27 -14.5 -46t-41 -21.5t-44 14t-23.5 41.5q-29 340 -33 731z" />
<glyph unicode="G" horiz-adv-x="806" d="M98 508q-4 63 -4 126q0 200 39 398q55 279 158 395q67 74 145 74h8q84 -2 164 -92q18 -18 16.5 -44t-20 -42t-44.5 -15t-44 19q-43 51 -76 51h-3q-26 0 -54 -32q-82 -92 -129 -337q-36 -189 -36 -381q0 -57 3 -114q16 -262 94 -387q31 -47 86 -47q29 0 54 31 q33 39 53 120q35 138 35 360v46q-27 8 -70 8h-55q-4 2 -8 2q-41 2 -50 0q-27 -2 -46 14.5t-21 42t14.5 45t42.5 21.5q8 1 24.5 1t41.5 -1q2 0 8 -2h47h10q87 0 148 -35q25 -14 30 -41q0 -2 2.5 -10t2.5 -10v-10q1 -43 1 -84q0 -228 -38 -377q-27 -106 -74 -166 q-61 -78 -152 -78q-55 0 -98 20q-55 27 -92 84q-94 152 -113 447z" />
<glyph unicode="H" horiz-adv-x="798" d="M160 762q2 119 8 301q10 297 10 364q0 27 17.5 44.5t43 17.5t44 -17.5t18.5 -44.5q0 -70 -10 -368q-6 -180 -8 -299q-2 -86 -2 -162t2 -141q80 0 135 -6q55 -4 102 -17q2 184 4 215q0 82 2 154q8 496 9 678q0 25 17 43t43 18t44 -18t18 -43q0 -182 -8 -680 q-2 -72 -2 -154q-2 -31 -4 -169t-4 -262t-2 -148q-2 -27 -19.5 -44.5t-43 -17.5t-44 18.5t-16.5 43.5q0 33 4 239q-86 27 -231 27q10 -174 35 -254q8 -25 -4.5 -47.5t-37 -29.5t-47 5t-28.5 35q-47 147 -47 560q0 75 2 159z" />
<glyph unicode="I" horiz-adv-x="466" d="M160 735q2 115 8 291q10 285 10 350q0 27 17.5 44.5t43 17.5t44 -17.5t18.5 -44.5q0 -68 -10 -354q-6 -176 -8 -289q-2 -86 -2 -161q0 -370 41 -494q8 -23 -4.5 -45.5t-36 -30.5t-46 3t-30.5 36q-47 142 -47 541q0 72 2 153z" />
<glyph unicode="J" horiz-adv-x="632" d="M16 391v38q0 52 4 83q6 25 27 40t45.5 11t39.5 -25.5t11 -45.5q-5 -22 -5 -65q0 -15 1 -32q2 -90 19 -159q18 -78 51 -105q12 -10 27 -12q20 -2 53 12q47 23 55 51q23 78 23 236v26q0 125 -17 365q-2 23 -4 57q-14 207 -18 295q-4 78 -4 140t4 108q2 25 21.5 41t45 14 t42 -21t14.5 -44q-3 -42 -3 -100t3 -132q4 -86 18 -290q2 -37 4 -58q16 -244 16 -375v-24q0 -179 -28 -273q-14 -49 -51 -84q-27 -23 -70 -43q-54 -25 -101 -25q-61 0 -110 42q-61 53 -90 170q-20 82 -23 184z" />
<glyph unicode="K" horiz-adv-x="1046" d="M137 1456q-2 25 14.5 44.5t42 21.5t45 -14.5t21.5 -41.5q14 -174 19 -374q80 84 116 122q6 6 13 15q90 96 139 153q29 33 43 54q6 8 10 12q12 41 57 41q25 0 43.5 -17.5t18.5 -44.5q0 -12 -6 -26q-2 -6 -6 -15q-6 -10 -17 -24q-18 -23 -49 -59q-49 -57 -135 -150 q25 -152 90 -336q43 -117 139 -342q41 -96 60 -139q68 -162 106 -279q8 -25 -3 -47t-35.5 -30.5t-47 3t-31.5 35.5q-37 113 -102 271q-18 43 -59 137q-98 229 -142 350q-53 143 -80 266q-55 -57 -120 -127q0 -139 -7 -438q-4 -279 -4 -416q0 -25 -18.5 -43t-44 -18t-43 18.5 t-17.5 42.5q0 139 5 418q5 259 5 432q0 87 -1 152q-4 213 -19 393z" />
<glyph unicode="L" horiz-adv-x="712" d="M127 1456q-2 25 14.5 44.5t42 21.5t45 -14.5t21.5 -41.5q6 -90 12 -692v-127q2 -285 4 -399q2 -84 2 -129q2 -4 2 -8q35 -4 92 -5q37 0 89 3q4 0 18 1t16 1h23q27 0 44 -18.5t17 -44t-17 -43t-44 -17.5h-21h-14q-14 -2 -20 -2q-51 -2 -91 -2q-66 0 -104 4q-27 4 -45 8 q-14 4 -25 10q-18 10 -28 27q-8 12 -10 28q0 6 -3 15v39q-2 45 -4 131q-2 115 -4 401v125q-6 598 -12 684z" />
<glyph unicode="M" horiz-adv-x="995" d="M139 815q-1 34 -1 66q0 96 5 178v10q4 74 7 109q4 84 4 147q0 45 2 96v31q2 4 2 8v4q0 31 25.5 47.5t54.5 8.5q16 -6 30 -21q8 -8 15 -18q10 -16 20 -39q14 -39 33 -109q27 -111 67 -319q12 -74 31 -168q2 -8 9.5 -50t17.5 -101.5t18 -102.5q18 106 45 246q10 59 25 125 q10 55 32.5 166.5t42 201.5t19.5 94q8 43 19 66q6 18 14 29q22 28 52 28h4q32 -2 52 -28q8 -10 15 -25q8 -18 12 -47q18 -94 18 -195v-460q0 -283 17 -502q8 -90 8 -256q0 -27 -18.5 -44.5t-44 -17.5t-43 17.5t-17.5 44.5q0 162 -8 248q-16 223 -16 510v333 q-27 -129 -39 -186q-12 -66 -25 -125q-80 -424 -80 -564v-7q0 -27 -17.5 -44.5t-43.5 -19.5q-16 0 -31 8q-37 10 -45 45q-18 63 -51 242q-4 29 -18.5 109t-28 155.5t-15.5 83.5q-18 94 -30 166q-8 43 -17 80v-6v-7v-5q-4 -76 -4 -170v-64q0 -78 6 -237q2 -63 2 -97 q3 -104 3 -193q0 -133 -7 -233q-2 -27 -21.5 -43t-45 -14t-42 21.5t-14.5 44.5q7 96 7 225q0 86 -3 188q0 33 -2 99q-6 158 -6 237z" />
<glyph unicode="N" horiz-adv-x="995" d="M143 657q2 188 11 351v10q4 74 6 108q4 84 4 148q0 45 2 96v31q2 4 2 8v4q0 31 25.5 47.5t54.5 7.5q27 -8 49 -41q12 -16 29 -47q27 -53 69 -147q72 -166 176 -436q72 -190 142 -383q-6 150 -6 334v231v229v17v6v10v4q1 35 1 63t-1 50q0 31 -3.5 56.5t13 45t42 21.5 t45 -14.5t21.5 -41.5q2 -29 4 -63q1 -24 1 -53.5t-1 -65.5v-6v-8v-6v-15v-229v-231q0 -281 17 -500q8 -92 8 -258q0 -25 -18.5 -43.5t-42.5 -18.5q-41 0 -58 37q-4 8 -6 17q-53 199 -272 772q-100 262 -172 424q0 -27 -2 -58q-2 -35 -7 -108v-13q-8 -158 -10 -342 q0 -164 8 -505q2 -90 2 -140q0 -27 -17 -45t-43 -18t-44 17t-18 42q0 51 -2 139q-8 346 -9 510z" />
<glyph unicode="O" horiz-adv-x="1032" d="M111 631q-3 53 -3 104q0 215 54 395q76 260 237 326q69 27 131 27q44 1 84 -13q96 -34 162 -141q106 -172 113 -479v-40q0 -270 -76 -497q-96 -283 -266 -338q-13 -4 -25 -2q-15 -2 -29 -2q-77 0 -145 45q-74 51 -127 154q-94 178 -110 461zM233 639q14 -256 97 -412 q39 -76 88 -108q36 -25 78 -25q11 0 22 2q106 43 178 256q70 207 70 455v39q-6 276 -94 420q-57 94 -145 94q-38 0 -81 -17q-106 -45 -167 -247q-48 -166 -48 -367q0 -44 2 -90z" />
<glyph unicode="P" horiz-adv-x="747" d="M143 1423q0 14 4 29q6 23 26.5 36t45.5 9q86 -14 169 -78.5t140 -158.5q60 -100 74 -202q3 -25 4 -50q0 -74 -31 -142q-43 -88 -126 -135q-53 -31 -156 -55q1 -75 1 -190.5t-1 -272.5v-162q0 -25 -17.5 -43t-43 -18t-44 18.5t-18.5 42.5v162q1 168 1 294.5t-1 211.5 q-4 403 -27 704zM272 1350q15 -242 19 -547q63 16 98 35q49 29 76 82q19 39 19 86q0 20 -4 42q-12 74 -56 148q-61 102 -152 154z" />
<glyph unicode="Q" horiz-adv-x="1091" d="M94 635q-3 49 -3 97q0 207 50 380q72 250 221 313q66 26 123 26q42 0 80 -13q90 -33 152 -135q96 -166 102 -461v-41q0 -257 -69 -473q-7 -19 -13 -35q18 -14 27 -23q90 -78 168 -155q16 -18 16 -44t-18.5 -43.5t-43 -17.5t-42.5 19q-74 74 -160 147q-76 -137 -182 -174 q-20 -6 -39 0h-12q-73 0 -137 45q-68 49 -117 148q-88 170 -103 440zM218 641q13 -244 87 -391q37 -72 80 -103q30 -22 64 -22q11 0 22 2h10q57 33 107 129l-45 37q-18 16 -33 29q-20 16 -22.5 41.5t15 45t42.5 21.5t45 -14q14 -12 33 -27q4 -6 12 -12q61 196 61 428v35 q-6 262 -86 399q-37 63 -84 82q-20 8 -44 8q-32 0 -70 -16q-96 -41 -152 -235q-44 -156 -44 -346q0 -45 2 -91z" />
<glyph unicode="R" horiz-adv-x="907" d="M143 1421q0 14 4 27q4 25 25.5 39t46.5 10q86 -14 169 -78.5t140 -158.5q60 -100 74 -202q3 -25 4 -50q0 -74 -31 -142q-25 -49 -61 -86q39 -23 70 -61q47 -55 80 -154q23 -66 43 -176q4 -16 8 -41q0 -4 4 -21.5t4 -21.5q23 -113 39 -164q8 -23 -3 -46t-36 -30.5t-47.5 4 t-30.5 35.5q-18 55 -43 179q0 4 -3 21.5t-5 19.5q-4 25 -8 43q-18 100 -39 159q-25 76 -57.5 115t-75.5 45q-11 2 -23 2q-42 0 -98 -22q1 -80 1 -202.5t-1 -287.5v-168q0 -25 -17.5 -43t-43 -18t-44 18.5t-18.5 42.5v168q1 173 1 303t-1 217q-4 416 -27 725zM270 1350 q16 -244 21 -547q63 16 98 35q49 29 76 82q19 39 19 86q0 20 -4 42q-12 74 -56 148q-62 103 -154 154z" />
<glyph unicode="S" horiz-adv-x="880" d="M131 205q4 24 24.5 38.5t46 10.5t40.5 -25q43 -59 92 -94q48 -31 97 -32q34 0 69 16q53 23 80 76q18 39 30 112q5 34 5 67q0 97 -44 183q-43 86 -149 191q-10 10 -43 41.5t-35 33.5q-47 45 -74 78q-51 63 -69 121q-24 78 -24 153q-1 41 7 81q20 114 90 188q70 76 163 76 h5q100 0 181 -93q18 -20 16 -44.5t-21.5 -42t-45.5 -15t-42 20.5q-45 51 -90 51h-4q-39 0 -71 -37q-43 -47 -58 -123q-6 -33 -6 -66q0 -55 16 -112q10 -35 48 -80q23 -27 65 -68q0 -2 34 -33.5t44 -41.5q121 -121 172 -222q58 -113 58 -237q0 -43 -7 -88q-14 -94 -41 -148 q-45 -94 -141 -135q-57 -26 -115 -26q-22 0 -43 4q-63 10 -125 49q-43 29 -82 71q-23 25 -43 54q-14 23 -10 47z" />
<glyph unicode="T" horiz-adv-x="880" d="M45 1381.5q-2 25.5 14 45t41 21.5q53 4 113 5q84 0 182 -9q109 -8 289 -31q25 -4 40 -24.5t12 -45t-23.5 -40t-44.5 -13.5q-147 20 -234 29q-2 -39 -6 -262q-4 -193 -6 -316v-46q0 -423 35 -572q4 -25 -9.5 -47.5t-38 -27.5t-46 8.5t-27.5 37.5q-37 164 -37 603v46 q2 123 6 316q4 231 6 268q-45 2 -86 2q-62 0 -114 -4q-25 -2 -44.5 14.5t-21.5 42z" />
<glyph unicode="U" horiz-adv-x="864" d="M139 739q4 162 23 381q0 4 4 39t7 74l6 78t5 49q2 27 20.5 43t44 14t43 -20t15.5 -45q-2 -12 -5 -51t-7 -78t-7 -75t-3 -38q-18 -217 -23 -373q-1 -35 -1 -67q0 -256 42 -398q27 -88 68 -125q31 -31 74 -31q8 0 16 1q31 4 63 30q43 33 57.5 86.5t16.5 141.5v37 q0 60 -4 145q0 16 -2 47v6q-2 4 -2 6v13q-2 25 -2 47q-5 114 -5 247t5 287q0 16 2 69.5t2 59.5q0 25 18.5 42.5t44 16.5t43 -19.5t17.5 -43.5q0 -6 -2 -59t-2 -70q-5 -150 -5 -281t5 -243q0 -23 2 -47v-12v-7q2 -2 2 -6q0 -29 2 -45q4 -91 4 -153v-39q-2 -104 -21 -174 q-27 -90 -100 -148q-59 -49 -125 -55q-16 -2 -31 -2q-91 0 -159 63q-63 61 -99 181q-48 160 -48 437q0 31 1 64z" />
<glyph unicode="V" horiz-adv-x="1005" d="M76 1401q-8 25 4 47t35.5 30.5t46.5 -3.5t31 -37q4 -12 36.5 -118t40.5 -132q43 -139 74 -240q49 -164 90 -307q35 -117 66 -233l6 -25q6 -25 15 -58.5t16 -56.5q23 106 43 232q18 102 51 315q12 82 20 127q45 291 90 485q6 25 28 38.5t46.5 7t37.5 -28t7 -45.5 q-43 -190 -88 -475q-6 -45 -20 -127q-33 -215 -50 -318q-33 -180 -65 -329q-6 -27 -21 -70q-8 -29 -16 -43q-8 -18 -18 -29q-20 -17 -43 -17q-8 1 -17 3q-33 8 -43 39q-16 45 -41 127q-6 25 -14 51q-4 16 -14.5 56t-19.5 74t-9 36q-31 115 -64 229q-41 143 -90 307 q-31 100 -73 238q-8 27 -41 133.5t-37 116.5z" />
<glyph unicode="W" horiz-adv-x="1280" d="M76 1427q-6 25 6 47.5t36.5 28.5t46.5 -6t30 -37q2 -12 31.5 -117.5t37.5 -132.5q39 -139 66 -239q45 -164 82 -307q31 -117 59 -234l4 -16q4 -18 10.5 -46t12.5 -49q12 63 18 115q8 51 14 123q12 141 56 342q-4 25 9 43.5t36 24.5q25 8 46 -5.5t28 -37.5q0 -2 2 -2 q0 -4 2 -11l63 -239q6 -25 19 -76q2 -8 19 -84t21 -98q0 -2 3.5 -15.5t8.5 -36l9 -40.5q14 86 29 184q16 102 43 315q10 82 16 127q39 289 76 484q6 25 26.5 39t46 9t40 -25.5t8.5 -45.5q-37 -190 -74 -477q-6 -45 -16 -127q-29 -215 -43 -318q-27 -180 -56 -327 q-6 -29 -16 -72q-8 -27 -14 -41q-6 -18 -17 -29q-8 -8 -18 -14q-23 -10 -47 -2q-20 6 -33 25q-6 8 -8 16q-14 45 -33 127q-6 23 -12 49q-4 18 -13.5 58t-15.5 75l-8 33q-6 25 -23.5 100.5t-19.5 83.5q-6 29 -11 45q-2 -31 -6 -67q-14 -150 -59 -371q-6 -29 -19 -72 q-8 -27 -14 -43t-16 -26q-8 -8 -21 -15q-20 -10 -45 -2q-18 6 -30 23q-6 8 -11 18q-14 45 -35 127q-6 23 -12 50q-4 18 -14 57t-19 74l-8 34q-27 115 -57 232q-37 141 -82 305q-27 100 -66 240q-6 27 -35.5 132t-33.5 117z" />
<glyph unicode="X" horiz-adv-x="1058" d="M210 4q-9 24 1 47q27 59 117 252q106 229 159 348q10 23 21 43q-6 14 -10 29q-55 147 -150 412q-82 231 -106 297q-10 23 1 46t34.5 32.5t46 -2t32.5 -33.5q25 -66 107 -297q78 -213 117 -324q168 379 200 510q6 25 28.5 38t47.5 7t38 -27.5t7 -46.5q-41 -160 -260 -645 q6 -18 12 -37q176 -469 254 -604q14 -20 7 -44.5t-28.5 -38t-46 -7.5t-36.5 29q-78 131 -234 542q-41 -86 -131 -280q-88 -188 -114 -248q-10 -25 -34 -34t-47.5 1.5t-32.5 34.5z" />
<glyph unicode="Y" horiz-adv-x="974" d="M92 1405q-8 25 2 47.5t34 31.5t47.5 -1t31.5 -35q2 -2 13 -33t24.5 -64.5t17.5 -47.5q31 -80 53 -136q74 -188 138 -325q2 -2 2 -6q18 35 45 92q51 109 71 149q96 209 140 375q6 25 27.5 38t46 7t38 -27.5t6.5 -46.5q-45 -178 -147 -397q-18 -43 -72 -152 q-47 -96 -73 -155q-10 -23 -21 -45l-2 -2q0 -61 -2 -158q-4 -113 -4 -156v-30q0 -134 16 -262q2 -25 -13 -45.5t-41 -23.5t-46.5 13.5t-22.5 40.5q-16 137 -16 276v31q0 47 4 160q2 102 4 168q-27 51 -51 105q-68 139 -141 331q-23 57 -54 138q-4 14 -17 46.5t-24.5 64.5 t-13.5 34z" />
<glyph unicode="Z" horiz-adv-x="999" d="M147 1424.5q0 25.5 17.5 43t44.5 17.5h182h184q20 0 80 -4q33 -4 52 -6q14 -2 22 -4.5t14 -4.5q16 -8 27 -20q12 -16 14 -39q2 -8 0 -18q0 -12 -6 -33q-6 -27 -18 -70q-4 -8 -6 -18l-29 -82q-45 -131 -107 -279q-37 -92 -110 -260q-2 -2 -6 -12t-4 -12 q-121 -272 -179 -426q-2 -10 -20 -68q-2 -2 -2 -4h33q35 -1 79 -1t97 1q172 4 287 14q25 2 44 -14t21 -42t-14.5 -45.5t-42.5 -21.5q-117 -10 -291 -14q-59 -1 -108 -1q-162 0 -207 15q-23 10 -33 32t-4 44q0 2 2 2v6q4 6 6 17q8 27 14 49h2q18 59 23 72q57 158 180 434 q0 2 5 12t5 12q74 166 111 256q59 145 102 273q18 57 29 82q2 10 4 18q6 16 10 33h-6q-23 2 -47 4h-16h-2h-5h-184h-182q-27 0 -44.5 18.5t-17.5 44z" />
<glyph unicode="[" horiz-adv-x="591" d="M104 424q-2 111 2 297q4 162 5 213q0 74 2 190v43q2 154 2 230v10v10q-2 10 -2 13q-2 20 -2 34q-2 31 0 52q2 16 6 28q6 25 24 37q23 16 68 23q27 2 67 4h56q35 -2 43 0q23 0 39 -14.5t18 -37t-13 -39t-38 -18.5q-10 -2 -51 0h-51q-37 -2 -58 -4h-2v-27q0 -12 2 -30v-13 l2 -10v-18q0 -78 -2 -232v-43q-2 -115 -2 -188q0 -51 -4 -217q-4 -182 -2 -291q0 -342 45 -494q20 0 49 2q12 0 29 3q45 2 59 2q23 0 38.5 -15.5t15.5 -38t-15.5 -39t-38.5 -16.5q-10 0 -51 -2q-18 -2 -31 -2q-78 -4 -110 8q-29 10 -39 41q-59 164 -60 549z" />
<glyph unicode="\" horiz-adv-x="751" d="M-56 1443q9 23 32.5 33.5t47 0.5t33.5 -33q76 -178 109 -258q90 -217 164 -393q8 -18 14 -35q213 -518 262 -672q8 -23 -4 -46.5t-35.5 -30.5t-46 4.5t-31.5 35.5q-47 147 -258 662q-8 16 -16 34q-72 176 -162 394l-108 256q-10 25 -1 48z" />
<glyph unicode="]" horiz-adv-x="538" d="M48 -135.5q-1 22.5 14 40t38 17.5h56q31 -2 49 -2q35 0 55 4h4v7v9.5v8.5q-2 14 -2 35v8q-2 10 -2 12v16l6 234v33q4 123 6 196q0 51 9 234q6 172 6 276q4 342 -37 492q-20 2 -49 0h-31q-43 -2 -57 -2q-23 0 -38.5 16.5t-15.5 39t16.5 37.5t39.5 15q10 0 49 2h33 q78 4 110 -8q29 -12 39 -43q55 -164 49 -549q0 -109 -6 -280q-8 -182 -8 -232q-2 -74 -6 -196v-35q-4 -154 -6 -232v-2v-6q0 -2 1 -10t1 -10q0 -23 2 -37q0 -33 -2 -53q-2 -14 -6 -27q-8 -25 -27 -37q-23 -16 -66 -20q-27 -4 -67 -4q-20 0 -53 2h-46q-23 0 -40 14t-18 36.5z " />
<glyph unicode="^" horiz-adv-x="798" d="M152 1069q47 135 137 315q8 16 16 29q41 63 101 57q49 -2 90 -53q39 -51 90 -184q4 -6 10 -22.5t11 -32t11 -27.5l5 -14q18 -47 28 -68q10 -23 2 -47.5t-30.5 -35.5t-46 -3t-35.5 31q-12 27 -33 80l-8 20q-6 20 -15.5 43t-13.5 33q-41 109 -70 145q0 -2 -2 -4 q-88 -174 -133 -303q-8 -23 -31.5 -34t-47 -3t-34.5 31.5t-1 46.5z" />
<glyph unicode="_" horiz-adv-x="935" d="M104 44q-2 26 15.5 44.5t42.5 20.5q68 4 192 6h2q238 6 369 20q25 4 45.5 -11t23.5 -41t-13.5 -46.5t-41.5 -22.5q-137 -16 -379 -22h-4q-123 -2 -186 -6q-27 0 -45.5 16t-20.5 42z" />
<glyph unicode="`" horiz-adv-x="481" d="M132.5 1394.5q-1.5 22.5 13 40t37 18.5t38.5 -15q4 -2 19.5 -16.5t19.5 -16.5q49 -45 72 -78q12 -20 7 -41.5t-23.5 -34t-41 -8.5t-34.5 25q-14 23 -54 57q-2 2 -17 15.5t-19 17.5q-16 14 -17.5 36.5z" />
<glyph unicode="a" d="M182 115q25 123 72 311q18 70 43 170q4 14 22.5 87t22.5 87q16 68 31 119q88 350 127 557v2q-4 27 11 46t40 24q33 6 53 -19q25 -23 21 -55q61 -403 213 -1006q8 -35 36 -133q12 -51 21 -82q23 -82 33 -141q4 -25 -10.5 -45.5t-40 -25.5t-46 10.5t-24.5 39.5 q-10 55 -31 132q-2 14 -8 30q-2 0 -4 -2q-84 -8 -260 -10q-8 0 -25 -2q-104 -2 -151 -4q-14 -61 -25 -115q-6 -25 -27.5 -39t-46 -9t-39 26.5t-8.5 46.5zM356 330q39 2 121 2q16 0 25 2q159 2 233 8q-8 35 -16 66q-90 360 -162 718q-27 -115 -65 -268q-12 -51 -31 -117 q-4 -16 -22.5 -88.5t-22.5 -87.5q-25 -100 -43 -168q-8 -37 -17 -67z" />
<glyph unicode="b" horiz-adv-x="778" d="M143 760q0 416 25 706q2 25 21.5 41.5t43.5 14.5q10 0 19 -4q13 1 26 1q139 0 220 -81q82 -82 82 -217q-2 -92 -43 -184.5t-109 -155.5q12 -4 21 -9q33 -12 45 -24q68 -57 104.5 -156.5t37.5 -215.5v-6q0 -112 -35 -208q-36 -98 -99 -156q-47 -39 -137 -63l-50 -10 q-35 -6 -43 -8q-20 -4 -28 -9q-12 -4 -23 -4q-21 0 -39 15q-35 16 -35 55q0 109 -2 328q-2 233 -2 350zM266 760q0 -117 2 -350q0 -180 2 -260l21 4q27 4 43 10q61 14 86 37q43 37 67.5 111.5t24.5 162.5t-25.5 162t-66.5 115h-2l-12 6q-14 4 -44 14q-2 2 -6 2 q-41 14 -55 19q-14 6 -22.5 10t-12.5 6v-49zM266 918h2l4 4q4 2 9 4q74 37 124 122t52 175q0 82 -45 127q-43 43 -127 45q-15 -209 -19 -477z" />
<glyph unicode="c" horiz-adv-x="886" d="M102 625q-11 80 -11 157q0 159 46 303q74 238 240 326q51 27 160 41q59 9 101 8q37 0 60 -6q25 -6 38.5 -28.5t6 -47t-29.5 -37t-47 -6.5q-11 3 -31 3q-30 0 -82 -7q-86 -12 -119 -31q-121 -61 -180 -251q-39 -125 -39 -263q0 -71 10 -145q31 -225 142 -365 q118 -149 297 -149h2q25 0 43 -18.5t18 -43t-18.5 -43t-42.5 -18.5q-240 0 -396 197q-133 166 -168 424z" />
<glyph unicode="d" horiz-adv-x="884" d="M137 1470q-2 25 14.5 44.5t41.5 21.5q19 2 37 2q189 0 323 -170q125 -156 170 -407q19 -113 19 -221q0 -124 -25 -242q-51 -244 -195 -355q-53 -41 -133 -88t-125 -61q-12 -6 -24 -4h-9q-25 0 -43 18.5t-18 42.5q0 168 -16 527q-6 119 -9 180q-9 201 -9 364q0 182 11 318 q-10 14 -10 30zM268 764q2 -61 8 -180q15 -308 17 -443q92 49 153 99q106 82 150 280q23 105 22 216q0 99 -18 204q-39 221 -143 352q-82 102 -189 119q-9 -122 -9 -283.5t9 -363.5z" />
<glyph unicode="e" horiz-adv-x="768" d="M188 285q-1 85 -1 192t1 236q4 242 9 432q4 205 10 229v6t-2 4q-4 27 10 47.5t41 24.5q55 10 106 10q22 0 44 -2q90 -8 153 -50q23 -14 28 -39t-9.5 -46.5t-40 -27t-45.5 9.5q-48 32 -128 32q-18 0 -38 -2v-4q-2 -18 -2 -47q-2 -55 -5 -147q-4 -125 -6 -285q16 2 43 4 q16 2 23 2q18 2 35 2q34 0 67 -8q25 -6 38 -27.5t8 -46t-26.5 -38t-45.5 -7.5q-19 4 -38 4q-13 0 -26 -2q-6 0 -20 -2q-35 -4 -58 -4q-2 -12 -2 -24q-1 -128 -1 -234t1 -190q0 -92 2 -144v-18q22 -3 54 -3q16 0 34 1q47 0 97 4q20 2 34 4q12 0 17 2q25 6 46 -7t27.5 -39 t-7 -47.5t-37.5 -27.5q-47 -10 -175 -12q-21 -1 -40 -1q-37 0 -64 3q-27 2 -45 8q-12 4 -23 10q-20 12 -30 31q-6 14 -8 43q-2 16 -3 45q-2 53 -2 146z" />
<glyph unicode="f" horiz-adv-x="825" d="M168 766v51q0 227 16 375q8 98 27 162q20 82 59 112q43 35 107 41q18 3 40 3q29 0 64 -5q20 -2 54 -6q68 -10 86 -10q27 0 44 -18.5t17 -44t-17.5 -43t-43.5 -17.5q-29 0 -105 10q-31 6 -49 8q-28 3 -50 3q-48 0 -67 -15q-2 -2 -6 -10q-8 -16 -14 -41q-14 -53 -25 -141 q-8 -86 -12 -207q8 0 26 2q34 2 62 2q42 0 72 -4q14 -2 26 -4q25 -6 39 -26.5t9 -45.5t-25.5 -39t-44.5 -10q-10 2 -19 2q-25 4 -60 4q-24 0 -52 -2q-27 -2 -35 -2v-84q4 -385 33 -719q2 -27 -14.5 -46t-41 -21.5t-44 14t-23.5 41.5q-29 340 -33 731z" />
<glyph unicode="g" horiz-adv-x="806" d="M98 508q-4 63 -4 126q0 200 39 398q55 279 158 395q67 74 145 74h8q84 -2 164 -92q18 -18 16.5 -44t-20 -42t-44.5 -15t-44 19q-43 51 -76 51h-3q-26 0 -54 -32q-82 -92 -129 -337q-36 -189 -36 -381q0 -57 3 -114q16 -262 94 -387q31 -47 86 -47q29 0 54 31 q33 39 53 120q35 138 35 360v46q-27 8 -70 8h-55q-4 2 -8 2q-41 2 -50 0q-27 -2 -46 14.5t-21 42t14.5 45t42.5 21.5q8 1 24.5 1t41.5 -1q2 0 8 -2h47h10q87 0 148 -35q25 -14 30 -41q0 -2 2.5 -10t2.5 -10v-10q1 -43 1 -84q0 -228 -38 -377q-27 -106 -74 -166 q-61 -78 -152 -78q-55 0 -98 20q-55 27 -92 84q-94 152 -113 447z" />
<glyph unicode="h" horiz-adv-x="798" d="M160 762q2 119 8 301q10 297 10 364q0 27 17.5 44.5t43 17.5t44 -17.5t18.5 -44.5q0 -70 -10 -368q-6 -180 -8 -299q-2 -86 -2 -162t2 -141q80 0 135 -6q55 -4 102 -17q2 184 4 215q0 82 2 154q8 496 9 678q0 25 17 43t43 18t44 -18t18 -43q0 -182 -8 -680 q-2 -72 -2 -154q-2 -31 -4 -169t-4 -262t-2 -148q-2 -27 -19.5 -44.5t-43 -17.5t-44 18.5t-16.5 43.5q0 33 4 239q-86 27 -231 27q10 -174 35 -254q8 -25 -4.5 -47.5t-37 -29.5t-47 5t-28.5 35q-47 147 -47 560q0 75 2 159z" />
<glyph unicode="i" horiz-adv-x="466" d="M160 735q2 115 8 291q10 285 10 350q0 27 17.5 44.5t43 17.5t44 -17.5t18.5 -44.5q0 -68 -10 -354q-6 -176 -8 -289q-2 -86 -2 -161q0 -370 41 -494q8 -23 -4.5 -45.5t-36 -30.5t-46 3t-30.5 36q-47 142 -47 541q0 72 2 153z" />
<glyph unicode="j" horiz-adv-x="632" d="M16 391v38q0 52 4 83q6 25 27 40t45.5 11t39.5 -25.5t11 -45.5q-5 -22 -5 -65q0 -15 1 -32q2 -90 19 -159q18 -78 51 -105q12 -10 27 -12q20 -2 53 12q47 23 55 51q23 78 23 236v26q0 125 -17 365q-2 23 -4 57q-14 207 -18 295q-4 78 -4 140t4 108q2 25 21.5 41t45 14 t42 -21t14.5 -44q-3 -42 -3 -100t3 -132q4 -86 18 -290q2 -37 4 -58q16 -244 16 -375v-24q0 -179 -28 -273q-14 -49 -51 -84q-27 -23 -70 -43q-54 -25 -101 -25q-61 0 -110 42q-61 53 -90 170q-20 82 -23 184z" />
<glyph unicode="k" horiz-adv-x="1046" d="M137 1456q-2 25 14.5 44.5t42 21.5t45 -14.5t21.5 -41.5q14 -174 19 -374q80 84 116 122q6 6 13 15q90 96 139 153q29 33 43 54q6 8 10 12q12 41 57 41q25 0 43.5 -17.5t18.5 -44.5q0 -12 -6 -26q-2 -6 -6 -15q-6 -10 -17 -24q-18 -23 -49 -59q-49 -57 -135 -150 q25 -152 90 -336q43 -117 139 -342q41 -96 60 -139q68 -162 106 -279q8 -25 -3 -47t-35.5 -30.5t-47 3t-31.5 35.5q-37 113 -102 271q-18 43 -59 137q-98 229 -142 350q-53 143 -80 266q-55 -57 -120 -127q0 -139 -7 -438q-4 -279 -4 -416q0 -25 -18.5 -43t-44 -18t-43 18.5 t-17.5 42.5q0 139 5 418q5 259 5 432q0 87 -1 152q-4 213 -19 393z" />
<glyph unicode="l" horiz-adv-x="712" d="M127 1456q-2 25 14.5 44.5t42 21.5t45 -14.5t21.5 -41.5q6 -90 12 -692v-127q2 -285 4 -399q2 -84 2 -129q2 -4 2 -8q35 -4 92 -5q37 0 89 3q4 0 18 1t16 1h23q27 0 44 -18.5t17 -44t-17 -43t-44 -17.5h-21h-14q-14 -2 -20 -2q-51 -2 -91 -2q-66 0 -104 4q-27 4 -45 8 q-14 4 -25 10q-18 10 -28 27q-8 12 -10 28q0 6 -3 15v39q-2 45 -4 131q-2 115 -4 401v125q-6 598 -12 684z" />
<glyph unicode="m" horiz-adv-x="995" d="M139 815q-1 34 -1 66q0 96 5 178v10q4 74 7 109q4 84 4 147q0 45 2 96v31q2 4 2 8v4q0 31 25.5 47.5t54.5 8.5q16 -6 30 -21q8 -8 15 -18q10 -16 20 -39q14 -39 33 -109q27 -111 67 -319q12 -74 31 -168q2 -8 9.5 -50t17.5 -101.5t18 -102.5q18 106 45 246q10 59 25 125 q10 55 32.5 166.5t42 201.5t19.5 94q8 43 19 66q6 18 14 29q22 28 52 28h4q32 -2 52 -28q8 -10 15 -25q8 -18 12 -47q18 -94 18 -195v-460q0 -283 17 -502q8 -90 8 -256q0 -27 -18.5 -44.5t-44 -17.5t-43 17.5t-17.5 44.5q0 162 -8 248q-16 223 -16 510v333 q-27 -129 -39 -186q-12 -66 -25 -125q-80 -424 -80 -564v-7q0 -27 -17.5 -44.5t-43.5 -19.5q-16 0 -31 8q-37 10 -45 45q-18 63 -51 242q-4 29 -18.5 109t-28 155.5t-15.5 83.5q-18 94 -30 166q-8 43 -17 80v-6v-7v-5q-4 -76 -4 -170v-64q0 -78 6 -237q2 -63 2 -97 q3 -104 3 -193q0 -133 -7 -233q-2 -27 -21.5 -43t-45 -14t-42 21.5t-14.5 44.5q7 96 7 225q0 86 -3 188q0 33 -2 99q-6 158 -6 237z" />
<glyph unicode="n" horiz-adv-x="995" d="M143 657q2 188 11 351v10q4 74 6 108q4 84 4 148q0 45 2 96v31q2 4 2 8v4q0 31 25.5 47.5t54.5 7.5q27 -8 49 -41q12 -16 29 -47q27 -53 69 -147q72 -166 176 -436q72 -190 142 -383q-6 150 -6 334v231v229v17v6v10v4q1 35 1 63t-1 50q0 31 -3.5 56.5t13 45t42 21.5 t45 -14.5t21.5 -41.5q2 -29 4 -63q1 -24 1 -53.5t-1 -65.5v-6v-8v-6v-15v-229v-231q0 -281 17 -500q8 -92 8 -258q0 -25 -18.5 -43.5t-42.5 -18.5q-41 0 -58 37q-4 8 -6 17q-53 199 -272 772q-100 262 -172 424q0 -27 -2 -58q-2 -35 -7 -108v-13q-8 -158 -10 -342 q0 -164 8 -505q2 -90 2 -140q0 -27 -17 -45t-43 -18t-44 17t-18 42q0 51 -2 139q-8 346 -9 510z" />
<glyph unicode="o" horiz-adv-x="1032" d="M111 631q-3 53 -3 104q0 215 54 395q76 260 237 326q69 27 131 27q44 1 84 -13q96 -34 162 -141q106 -172 113 -479v-40q0 -270 -76 -497q-96 -283 -266 -338q-13 -4 -25 -2q-15 -2 -29 -2q-77 0 -145 45q-74 51 -127 154q-94 178 -110 461zM233 639q14 -256 97 -412 q39 -76 88 -108q36 -25 78 -25q11 0 22 2q106 43 178 256q70 207 70 455v39q-6 276 -94 420q-57 94 -145 94q-38 0 -81 -17q-106 -45 -167 -247q-48 -166 -48 -367q0 -44 2 -90z" />
<glyph unicode="p" horiz-adv-x="747" d="M143 1423q0 14 4 29q6 23 26.5 36t45.5 9q86 -14 169 -78.5t140 -158.5q61 -100 74 -202q4 -25 4 -50q0 -74 -31 -142q-43 -88 -126 -135q-53 -31 -156 -55q1 -75 1 -190.5t-1 -272.5v-162q0 -25 -17.5 -43t-43 -18t-44 18.5t-18.5 42.5v162q1 168 1 294.5t-1 211.5 q-4 403 -27 704zM272 1350q15 -242 19 -547q63 16 98 35q49 29 76 82q19 39 19 86q0 21 -4 42q-11 74 -56 148q-61 102 -152 154z" />
<glyph unicode="q" horiz-adv-x="1091" d="M94 635q-3 49 -3 97q0 207 50 380q72 250 221 313q66 26 123 26q42 0 80 -13q90 -33 152 -135q96 -166 102 -461v-41q0 -257 -69 -473q-6 -18 -13 -35q18 -14 27 -23q90 -78 168 -155q16 -18 16 -44t-18.5 -43.5t-43 -17.5t-42.5 19q-74 74 -160 147q-76 -137 -182 -174 q-21 -6 -39 0h-12q-73 0 -137 45q-68 49 -117 148q-88 170 -103 440zM218 641q13 -244 87 -391q37 -72 80 -103q30 -22 64 -22q11 0 22 2h10q57 33 107 129l-45 37q-18 16 -33 29q-20 16 -22.5 41.5t15 45t42.5 21.5t45 -14q14 -12 33 -27q4 -6 12 -12q61 196 61 428v35 q-6 262 -86 399q-37 63 -84 82q-20 8 -44 8q-32 0 -70 -16q-96 -41 -152 -235q-44 -156 -44 -346q0 -45 2 -91z" />
<glyph unicode="r" horiz-adv-x="907" d="M143 1421q0 14 4 27q4 25 25.5 39t46.5 10q86 -14 169 -78.5t140 -158.5q60 -100 74 -202q3 -25 4 -50q0 -74 -31 -142q-25 -49 -61 -86q39 -23 70 -61q47 -55 80 -154q23 -66 43 -176q4 -16 8 -41q0 -4 4 -21.5t4 -21.5q23 -113 39 -164q8 -23 -3 -46t-36 -30.5t-47.5 4 t-30.5 35.5q-18 55 -43 179q0 4 -3 21.5t-5 19.5q-4 25 -8 43q-18 100 -39 159q-25 76 -57.5 115t-75.5 45q-11 2 -23 2q-42 0 -98 -22q1 -80 1 -202.5t-1 -287.5v-168q0 -25 -17.5 -43t-43 -18t-44 18.5t-18.5 42.5v168q1 173 1 303t-1 217q-4 416 -27 725zM270 1350 q16 -244 21 -547q63 16 98 35q49 29 76 82q19 39 19 86q0 20 -4 42q-12 74 -56 148q-62 103 -154 154z" />
<glyph unicode="s" horiz-adv-x="880" d="M131 205q4 24 24.5 38.5t46 10.5t40.5 -25q43 -59 92 -94q48 -31 97 -32q34 0 69 16q53 23 80 76q18 39 30 112q5 34 5 67q0 97 -44 183q-43 86 -149 191q-10 10 -43 41.5t-35 33.5q-47 45 -74 78q-51 63 -69 121q-24 78 -24 153q-1 41 7 81q20 114 90 188q70 76 163 76 h5q100 0 181 -93q18 -20 16 -44.5t-21.5 -42t-45.5 -15t-42 20.5q-45 51 -90 51h-4q-39 0 -71 -37q-43 -47 -58 -123q-6 -33 -6 -66q0 -55 16 -112q10 -35 48 -80q23 -27 65 -68q0 -2 34 -33.5t44 -41.5q121 -121 172 -222q58 -113 58 -237q0 -43 -7 -88q-14 -94 -41 -148 q-45 -94 -141 -135q-57 -26 -115 -26q-22 0 -43 4q-63 10 -125 49q-43 29 -82 71q-23 25 -43 54q-14 23 -10 47z" />
<glyph unicode="t" horiz-adv-x="880" d="M45 1381.5q-2 25.5 14 45t41 21.5q53 4 113 5q84 0 182 -9q109 -8 289 -31q25 -4 40 -24.5t12 -45t-23.5 -40t-44.5 -13.5q-147 20 -234 29q-2 -39 -6 -262q-4 -193 -6 -316v-46q0 -423 35 -572q4 -25 -9.5 -47.5t-38 -27.5t-46 8.5t-27.5 37.5q-37 164 -37 603v46 q2 123 6 316q4 231 6 268q-45 2 -86 2q-62 0 -114 -4q-25 -2 -44.5 14.5t-21.5 42z" />
<glyph unicode="u" horiz-adv-x="864" d="M139 739q4 162 23 381q0 4 4 39t7 74l6 78t5 49q2 27 20.5 43t44 14t43 -20t15.5 -45q-2 -12 -5 -51t-7 -78t-7 -75t-3 -38q-18 -217 -23 -373q-1 -35 -1 -67q0 -256 42 -398q27 -88 68 -125q31 -31 74 -31q8 0 16 1q31 4 63 30q43 33 57.5 86.5t16.5 141.5v37 q0 60 -4 145q0 16 -2 47v6q-2 4 -2 6v13q-2 25 -2 47q-5 114 -5 247t5 287q0 16 2 69.5t2 59.5q0 25 18.5 42.5t44 16.5t43 -19.5t17.5 -43.5q0 -6 -2 -59t-2 -70q-5 -150 -5 -281t5 -243q0 -23 2 -47v-12v-7q2 -2 2 -6q0 -29 2 -45q4 -91 4 -153v-39q-2 -104 -21 -174 q-27 -90 -100 -148q-59 -49 -125 -55q-16 -2 -31 -2q-91 0 -159 63q-63 61 -99 181q-48 160 -48 437q0 31 1 64z" />
<glyph unicode="v" horiz-adv-x="1005" d="M76 1401q-8 25 4 47t35.5 30.5t46.5 -3.5t31 -37q4 -12 36.5 -118t40.5 -132q43 -139 74 -240q49 -164 90 -307q35 -117 66 -233l6 -25q6 -25 15 -58.5t16 -56.5q23 106 43 232q18 102 51 315q12 82 20 127q45 291 90 485q6 25 28 38.5t46.5 7t37.5 -28t7 -45.5 q-43 -190 -88 -475q-6 -45 -20 -127q-33 -215 -50 -318q-33 -180 -65 -329q-6 -27 -21 -70q-8 -29 -16 -43q-8 -18 -18 -29q-20 -17 -43 -17q-8 1 -17 3q-33 8 -43 39q-16 45 -41 127q-6 25 -14 51q-4 16 -14.5 56t-19.5 74t-9 36q-31 115 -64 229q-41 143 -90 307 q-31 100 -73 238q-8 27 -41 133.5t-37 116.5z" />
<glyph unicode="w" horiz-adv-x="1280" d="M76 1427q-6 25 6 47.5t36.5 28.5t46.5 -6t30 -37q2 -12 31.5 -117.5t37.5 -132.5q39 -139 66 -239q45 -164 82 -307q31 -117 59 -234l4 -16q4 -18 10.5 -46t12.5 -49q12 63 18 115q8 51 14 123q12 141 56 342q-4 25 9 43.5t36 24.5q25 8 46 -5.5t28 -37.5q0 -2 2 -2 q0 -4 2 -11l63 -239q6 -25 19 -76q2 -8 19 -84t21 -98q0 -2 3.5 -15.5t8.5 -36l9 -40.5q14 86 29 184q16 102 43 315q10 82 16 127q39 289 76 484q6 25 26.5 39t46 9t40 -25.5t8.5 -45.5q-37 -190 -74 -477q-6 -45 -16 -127q-29 -215 -43 -318q-27 -180 -56 -327 q-6 -29 -16 -72q-8 -27 -14 -41q-6 -18 -17 -29q-8 -8 -18 -14q-23 -10 -47 -2q-20 6 -33 25q-6 8 -8 16q-14 45 -33 127q-6 23 -12 49q-4 18 -13.5 58t-15.5 75l-8 33q-6 25 -23.5 100.5t-19.5 83.5q-6 29 -11 45q-2 -31 -6 -67q-14 -150 -59 -371q-6 -29 -19 -72 q-8 -27 -14 -43t-16 -26q-8 -8 -21 -15q-20 -10 -45 -2q-18 6 -30 23q-6 8 -11 18q-14 45 -35 127q-6 23 -12 50q-4 18 -14 57t-19 74l-8 34q-27 115 -57 232q-37 141 -82 305q-27 100 -66 240q-6 27 -35.5 132t-33.5 117z" />
<glyph unicode="x" horiz-adv-x="1058" d="M210 4q-9 24 1 47q27 59 117 252q106 229 159 348q10 23 21 43q-6 14 -10 29q-55 147 -150 412q-82 231 -106 297q-10 23 1 46t34.5 32.5t46 -2t32.5 -33.5q25 -66 107 -297q78 -213 117 -324q168 379 200 510q6 25 28.5 38t47.5 7t38 -27.5t7 -46.5q-41 -160 -260 -645 q6 -18 12 -37q176 -469 254 -604q14 -20 7 -44.5t-28.5 -38t-46 -7.5t-36.5 29q-78 131 -234 542q-41 -86 -131 -280q-88 -188 -114 -248q-10 -25 -34 -34t-47.5 1.5t-32.5 34.5z" />
<glyph unicode="y" horiz-adv-x="974" d="M92 1405q-8 25 2 47.5t34 31.5t47.5 -1t31.5 -35q2 -2 13 -33t24.5 -64.5t17.5 -47.5q31 -80 53 -136q74 -188 138 -325q2 -2 2 -6q18 35 45 92q51 109 71 149q96 209 140 375q6 25 27.5 38t46 7t38 -27.5t6.5 -46.5q-45 -178 -147 -397q-18 -43 -72 -152 q-47 -96 -73 -155q-10 -23 -21 -45l-2 -2q0 -61 -2 -158q-4 -113 -4 -156v-30q0 -134 16 -262q2 -25 -13 -45.5t-41 -23.5t-46.5 13.5t-22.5 40.5q-16 137 -16 276v31q0 47 4 160q2 102 4 168q-27 51 -51 105q-68 139 -141 331q-23 57 -54 138q-4 14 -17 46.5t-24.5 64.5 t-13.5 34z" />
<glyph unicode="z" horiz-adv-x="999" d="M147 1424.5q0 25.5 17.5 43t44.5 17.5h182h184q20 0 80 -4q33 -4 52 -6q14 -2 22 -4.5t14 -4.5q16 -8 27 -20q12 -16 14 -39q2 -8 0 -18q0 -12 -6 -33q-6 -27 -18 -70q-4 -8 -6 -18l-29 -82q-45 -131 -107 -279q-37 -92 -110 -260q-2 -2 -6 -12t-4 -12 q-121 -272 -179 -426q-2 -10 -20 -68q-2 -2 -2 -4h33q35 -1 79 -1t97 1q172 4 287 14q25 2 44 -14t21 -42t-14.5 -45.5t-42.5 -21.5q-117 -10 -291 -14q-59 -1 -108 -1q-162 0 -207 15q-23 10 -33 32t-4 44q0 2 2 2v6q4 6 6 17q8 27 14 49h2q18 59 23 72q57 158 180 434 q0 2 5 12t5 12q74 166 111 256q59 145 102 273q18 57 29 82q2 10 4 18q6 16 10 33h-6q-23 2 -47 4h-16h-2h-5h-184h-182q-27 0 -44.5 18.5t-17.5 44z" />
<glyph unicode="{" horiz-adv-x="677" d="M129 623q0 45 45 59q39 10 53 94q8 43 9 111q0 43 -3 133v8q-2 106 -2 162q4 90 21 149q51 178 227 164q25 -4 41.5 -23.5t14 -44t-21.5 -41t-44 -14.5q-43 4 -64.5 -13t-33.5 -60q-12 -47 -17 -123q0 -49 2 -154v-6q2 -94 2 -139q-2 -76 -10 -129q-12 -70 -39 -113 q31 -41 43 -117q10 -55 10 -147q0 -53 -2 -170q-2 -37 -2 -55q-4 -213 13 -306q12 -57 30 -84q14 -18 35 -20q25 -2 41.5 -21.5t14 -45t-21.5 -42t-44 -14.5q-78 8 -123 72q-35 49 -51 133q-23 104 -16 330q0 20 2 57q2 115 2 164q0 82 -9 131q-6 43 -18 57q-2 0 -6 -2 q-8 -2 -17 -2q-45 0 -59 43q-2 10 -2 19z" />
<glyph unicode="|" horiz-adv-x="413" d="M106 27q16 154 29 714q4 197 8 443q2 80 4 176v119q2 25 19.5 42t43.5 17t44 -18t16 -43v-119q-2 -96 -4 -176q-4 -246 -8 -443q-14 -567 -31 -727q-2 -25 -21.5 -41t-45 -13t-42 22.5t-12.5 46.5z" />
<glyph unicode="}" horiz-adv-x="622" d="M72 -300q2 26 21 41t44 13q43 -4 64.5 13.5t34.5 60.5q14 45 16 121q2 51 0 153v9q-2 92 -2 137q2 78 12 129q12 70 39 112q-31 41 -43 117q-10 57 -10 148q0 53 4 170q2 37 2 55q6 211 -10 303q-12 57 -31 84q-14 20 -33 23q-27 2 -43 21.5t-13 45t22.5 40.5t43.5 13 q76 -6 123 -71q35 -49 52 -131q18 -106 12 -332q0 -18 -2 -55q-4 -115 -4 -166q0 -82 8 -129q6 -43 18 -58q2 0 6 2q8 2 17 2q45 0 59 -45q2 -8 2 -16q0 -47 -45 -59q-39 -12 -53 -95q-8 -43 -10 -110q0 -43 2 -133v-9q2 -106 0 -159q-4 -90 -21 -150q-51 -180 -227 -162 q-27 2 -42 21.5t-13 45.5z" />
<glyph unicode="~" horiz-adv-x="917" d="M142.5 731q-7.5 24 4.5 47q41 76 97 101q57 27 118 -2q33 -14 68 -43q20 -16 55 -52q59 -55 82 -67q6 -4 11 -4l2 -2q0 2 4 4q12 12 28 30q2 4 6 9q2 2 5 6l4 4l16 16q14 16 27 29q18 18 43.5 18t43 -17t17.5 -43t-18 -44q-10 -10 -23 -25q-6 -6 -14 -16l-4 -4t-2 -4 l-8 -8q-20 -23 -35 -37q-68 -70 -160 -21q-27 14 -57 41q-16 14 -52 47q-61 59 -88 70q-12 6 -18 2q-18 -8 -39 -47q-12 -23 -36.5 -30t-47 5.5t-30 36.5z" />
<glyph unicode="&#xa1;" horiz-adv-x="442" d="M135 209q-6 494 17 622q4 27 25.5 41.5t46 10.5t38.5 -25.5t10 -46.5q-20 -119 -14 -600q8 -424 18 -543q2 -25 -13 -45t-40.5 -22t-45 14t-23.5 41q-10 123 -19 553zM156 1090q-4 25 10 46t39 25q34 7 57 -20q37 -14 37 -56q0 -12 -2 -22q-2 -16 -12 -31 q-25 -33 -64 -26q-23 4 -37 22q-23 23 -28 62z" />
<glyph unicode="&#xa2;" horiz-adv-x="753" d="M143 700q-18 238 70 371q51 78 131 96v4v64q0 25 18.5 43t44 18t43 -18t17.5 -43v-64v-14q41 -12 86 -41q20 -12 26.5 -36.5t-7 -46t-38 -28t-47.5 8.5q-43 27 -77 33h-4q-8 0 -17 2q-6 0 -14 -2q-33 -4 -60 -43q-63 -98 -48.5 -295t91.5 -293q31 -37 62 -41q39 -2 90 41 q18 16 44 14t42 -21.5t14 -45t-20 -41.5q-70 -59 -139 -68q-2 -20 -2 -43q0 -25 -17.5 -43t-43.5 -18t-44 18t-18 43q0 37 2 70q-35 20 -66 59q-102 125 -119 360z" />
<glyph unicode="&#xa3;" horiz-adv-x="1048" d="M135.5 219q1.5 70 22.5 123q33 78 94 96q39 10 76 8q0 12 -2 25q-4 68 -23 217q-2 25 -4 39v10q-33 0 -61 2q-27 2 -43.5 21.5t-14.5 45t21.5 42t44.5 14.5q20 -2 39 -2q-6 74 -9 133q-4 145 19 240q33 127 124 179t234 20q25 -6 38.5 -28t7 -46.5t-27.5 -37.5t-46 -9 q-98 25 -150 -6q-43 -27 -61.5 -103t-14.5 -205q2 -61 11 -139h16h57h80q25 0 43.5 -17.5t18.5 -43t-18.5 -44t-43.5 -18.5h-80h-57h-4q4 -25 4 -33q18 -154 23 -221q4 -35 4 -65q43 -20 100 -58q14 -12 57 -43q78 -55 121 -75q59 -31 115 -31q25 0 43 -18.5t18 -44 t-18.5 -43t-42.5 -17.5q-84 0 -170 43q-51 27 -137 88q-41 29 -56 39q-16 12 -32 20q-8 -100 -45 -161q-47 -80 -140 -90q-43 -6 -76 22q-23 18 -36 51q-20 51 -18.5 121zM258 217q0 -40 8 -67q20 6 35 28q23 37 29 113q0 16 2 33q-23 2 -45 -5q-2 0 -4 -2q-4 -6 -11 -20 q-14 -33 -14 -80z" />
<glyph unicode="&#xa4;" horiz-adv-x="954" d="M120 1029q-3 26 12 46.5t41 23t46 -13.5q14 -12 31 -26q14 -12 33 -31l4 -4q47 33 106 45q158 35 264 -35q8 6 29 21q6 4 10 8q10 6 21 12q20 14 44.5 9t39 -25.5t9.5 -46t-26 -39.5q-8 -4 -16 -10q-4 -2 -10 -7q-8 -8 -15 -12q41 -70 45 -160q4 -135 -69 -245 q-6 -12 -12 -21q12 -12 28 -29q4 -4 20.5 -20t20.5 -20q16 -18 16.5 -44t-17 -43.5t-43 -17.5t-44.5 18q-4 2 -20.5 19.5t-18.5 19.5q-20 18 -33 31v2q-55 -35 -118 -45q-6 -2 -15 -2q-113 -6 -196 51q-31 -31 -51 -55q-16 -18 -41 -21.5t-45.5 13t-22.5 42t14 44.5 q25 31 60 67q-45 70 -56 160q-14 129 48 234q4 8 8 14l-6 6l-27 27q-12 10 -25 20q-20 14 -23 40zM267 701q9 -89 65 -142q57 -55 151 -49h2q80 16 131 94q53 80 50 176q-4 92 -62 140q-63 55 -186 30q-78 -18 -119 -90q-41 -70 -32 -159z" />
<glyph unicode="&#xa5;" horiz-adv-x="946" d="M113 1364q-10 23 1 46.5t34.5 32.5t46 -2t32.5 -34q0 -2 11.5 -31.5t23.5 -61.5t17 -44q29 -76 49 -131q63 -160 116 -277h23q14 31 34.5 75t35 71.5t18.5 38.5q88 193 127 346q6 25 28.5 38t47 7t37 -29t6.5 -47q-41 -164 -135 -367q-4 -12 -60 -125q31 4 58 15 q23 8 46 -3.5t31.5 -36t-3 -47t-36.5 -30.5q-59 -20 -135 -27q-12 0 -22 -2q-8 -18 -15 -28q-8 -16 -14 -33q0 -2 -2 -2v-43h88q27 0 44.5 -17.5t17.5 -43t-17.5 -44t-44.5 -18.5h-92q-2 -59 -2 -96q-2 -127 14 -252q4 -25 -11 -45.5t-40 -24.5t-45 11.5t-25 41.5 q-18 133 -16 271q0 37 2 98q-86 2 -162 8q-27 2 -43 21.5t-14 45t21.5 42t46.5 14.5q74 -6 155 -8v51q-12 27 -24 53q-68 -2 -113 -8q-25 -6 -46.5 9.5t-25.5 40t11.5 46t39.5 25.5q35 6 78 8q-45 100 -96 234q-23 53 -51 129q-4 12 -16.5 45t-23.5 62.5t-11 31.5z" />
<glyph unicode="&#xa6;" horiz-adv-x="421" d="M147 594q0 25 18.5 43t44.5 18t43 -18t17 -43q0 -86 2 -258q2 -170 2 -256q0 -27 -17 -44.5t-43 -17.5t-44 17.5t-18 44.5q0 84 -2 256q-2 170 -3 258zM156 913v283v225q0 27 18.5 44.5t44 17.5t43 -17.5t17.5 -44.5v-225v-283q0 -27 -17.5 -44t-43 -17t-44 17.5 t-18.5 43.5z" />
<glyph unicode="&#xa7;" horiz-adv-x="851" d="M127 -240q4 25 24.5 40.5t46 11t40.5 -26.5q37 -51 77 -78q68 -45 136 -14q43 18 65 61q14 33 25 94q18 115 -33 213q-37 72 -127 162q-8 8 -37 36t-31 30q-41 39 -63 67q-47 55 -64 109q-31 106 -11 209.5t83 175.5q31 37 68 57q-20 20 -35 39q-47 55 -64 109 q-31 106 -12.5 206.5t78.5 163.5q68 74 157 71t158 -83q16 -20 14.5 -46t-20 -42t-44.5 -14t-42 20q-37 41 -72 41q-33 2 -61 -31q-35 -37 -47 -100q-14 -72 10 -151q8 -29 39 -66q18 -23 55 -57q0 -2 30 -30t38 -36q104 -104 151 -194q68 -133 43 -287q-12 -82 -34 -129 q-33 -66 -93 -103q25 -35 43 -71q68 -133 44 -287q-12 -82 -35 -129q-41 -84 -127 -121q-70 -31 -142 -20q-57 8 -110 45q-39 25 -74 63q-18 20 -37 47q-14 20 -10 45zM296 650.5q-13 -72.5 9 -150.5q8 -29 39 -66q18 -23 55 -57q0 -2 30 -30t38 -36q14 -14 27 -28 q43 20 63 61q14 33 25 94q18 115 -33 213q-35 70 -125 160q-2 0 -6 -2q-35 -2 -68 -39q-41 -47 -54 -119.5z" />
<glyph unicode="&#xa8;" horiz-adv-x="622" d="M98 1413q-4 25 10.5 46.5t38.5 25.5q35 6 58 -21q37 -14 37 -55q0 -12 -2 -23q-2 -16 -13 -30q-25 -33 -63 -27q-23 4 -37 23q-23 20 -29 61zM336 1405q-4 25 10 46.5t39 25.5q34 6 57 -19q37 -16 37 -57q0 -12 -2 -21q-2 -18 -12 -32q-25 -33 -64 -25q-23 2 -36 20 q-23 23 -29 62z" />
<glyph unicode="&#xa9;" horiz-adv-x="1241" d="M37 705q-23 225 76 407q113 207 331 254q305 68 486 -92q160 -141 170 -395q8 -240 -115 -437q-137 -221 -367 -262q-10 -2 -18 0q-242 -16 -397 148q-141 145 -166 377zM160 717q18 -188 131 -305q121 -125 311 -109h4q170 35 275 203q102 168 96 368q-8 201 -127 308 q-135 119 -379 65q-164 -37 -250 -194q-82 -150 -61 -336zM342 774q-16 207 59 324q51 76 129 88q82 12 177 -45q20 -14 26 -39t-7 -46.5t-39 -27.5t-46 8q-55 33 -90 29q-27 -4 -45 -35q-55 -82 -43 -248t78 -245q25 -31 47 -33q31 -2 71 33q18 16 44 14t42.5 -21.5 t14.5 -45t-23 -42.5q-78 -66 -155.5 -60.5t-137.5 77.5q-88 111 -102 315z" />
<glyph unicode="&#xaa;" horiz-adv-x="544" d="M43 834q10 55 33 139q6 31 18 76q2 6 10.5 38.5t10.5 38.5q8 31 12 54q39 156 57 245q-2 16 8.5 29.5t26.5 18.5q20 2 34.5 -12.5t12.5 -35.5q29 -180 96 -448q4 -14 17 -59q6 -20 10 -35q8 -37 14 -66q2 -16 -7 -29.5t-26.5 -16.5t-30.5 6t-17 26q-4 25 -13 57v4 q-37 -4 -108 -6h-13h-57q-2 -16 -8 -43q-4 -16 -18.5 -25.5t-31 -5.5t-25.5 17.5t-5 32.5zM152 940h34h13q59 2 88 4q-2 4 -4 14q-31 127 -60 263q-8 -29 -16 -62q-6 -23 -12 -53q-33 -125 -43 -166z" />
<glyph unicode="&#xab;" horiz-adv-x="1048" d="M129 780q0 12 6 25q4 8 12 14q4 6 13 12q10 8 33 27q4 2 14 10.5t20 16.5l11 6q29 25 51 41q14 10 26 20q61 51 84 78q14 20 40 22.5t45.5 -13t22.5 -41.5t-13 -46q-29 -37 -101 -94q-14 -12 -28 -22q-23 -18 -54 -41l-12 -11q8 -6 20 -10q4 -2 15.5 -7t21.5 -9l11 -4 q61 -29 96 -47q25 -12 43 -25q20 -14 24.5 -40t-10 -46.5t-40 -25.5t-46.5 12q-12 8 -31 18q-29 14 -86 41q-2 0 -12 4t-20.5 9t-14.5 8q-29 12 -45 20q-53 27 -75 47q-25 20 -21 51zM504 803q2 14 8 24q4 8 10 15q4 6 13 12q10 10 32 27q4 2 14.5 10t20.5 15t10 9 q31 23 52 39q14 10 26 21q63 51 84 78q16 20 41 22t45.5 -13t22 -41t-12.5 -46q-31 -35 -102 -94q-14 -10 -29 -23q-20 -18 -51 -41l-14 -10q10 -4 22 -10q4 -2 14.5 -7.5t20.5 -9.5l10 -4q63 -29 97 -45q25 -14 43 -26q20 -14 24 -40t-10 -46.5t-39 -24.5t-45 10 q-12 8 -33 19q-29 14 -86 41l-10 4q-10 6 -21.5 10t-15.5 6q-27 12 -45 21q-53 27 -75.5 47t-20.5 51z" />
<glyph unicode="&#xac;" horiz-adv-x="946" d="M68 766q0 25 17 43t44 18q233 0 444 -2h121q18 -2 31 -2h4h4h2h2q41 0 56 -39q14 -33 10 -141q-2 -88 -8 -131q-2 -25 -22.5 -40t-46.5 -12t-41 23.5t-11 44.5q4 37 6 117q2 33 0 57h-109q-211 2 -442 3q-27 0 -44 18t-17 43z" />
<glyph unicode="&#xad;" horiz-adv-x="776" d="M135 772.5q-2 24.5 14.5 44t43.5 21.5q43 4 126 6q2 0 3 2q156 4 241 20q25 4 45.5 -11t25.5 -39.5t-10.5 -45t-39.5 -27.5q-61 -10 -133 -16q-43 -2 -125 -4q-82 -4 -125 -6q-25 -2 -44.5 14.5t-21.5 41z" />
<glyph unicode="&#xae;" horiz-adv-x="1241" d="M37 705q-23 225 76 407q113 207 331 254q305 68 486 -92q160 -141 170 -395q8 -240 -115 -437q-137 -221 -367 -262q-10 -2 -18 0q-242 -16 -397 148q-141 145 -166 377zM160 717q18 -188 131 -305q49 -49 110 -78q-2 4 -2 6v96q2 197 0 295q-2 238 -14 412q0 10 2 18 q4 16 17.5 25.5t29.5 7.5q51 -10 99.5 -47t80.5 -92q78 -125 27 -230q-12 -25 -31 -45q20 -12 35 -30q29 -35 47 -91q12 -39 25 -100q2 -10 4 -24q2 -2 3 -11.5t3 -13.5q12 -63 21 -92q6 -14 -2.5 -29.5t-23.5 -21t-30.5 2t-21.5 23.5q-10 33 -25 103q0 2 -2 12l-2 10 q-2 14 -4 25q-23 117 -55 153q-16 20 -37 25q-27 4 -64 -10q2 -90 0 -275v-96q0 -16 -12 -29q61 -14 133 -8h4q170 35 275 203q102 168 96 368q-8 201 -127 308q-135 119 -379 65q-164 -37 -250 -194q-82 -150 -61 -336zM471 1092q6 -131 10 -291q37 10 55.5 23.5t30.5 37.5 q31 63 -22 150q-31 51 -74 80z" />
<glyph unicode="&#xaf;" horiz-adv-x="763" d="M21.5 1387.5q-1.5 25.5 15 44t43.5 20.5q55 4 162 6h2q199 6 309 21q25 4 45 -11.5t23.5 -40t-12 -45t-40.5 -24.5q-117 -16 -321 -23h-4q-102 -2 -158 -6q-25 -2 -44 15.5t-20.5 43z" />
<glyph unicode="&#xb0;" horiz-adv-x="671" d="M63 1169q-8 96 33 174q51 90 148 111q131 31 211 -41q70 -63 73 -172q4 -100 -47 -184q-59 -96 -162 -113q-4 -2 -10 -2q-104 -6 -174 66q-61 63 -72 161zM165.5 1179.5q6.5 -63.5 43.5 -100.5q37 -39 98 -35q53 12 86 66q37 57 33 127q-2 66 -39 98q-41 37 -121 21 q-51 -12 -80 -62q-27 -51 -20.5 -114.5z" />
<glyph unicode="&#xb1;" horiz-adv-x="909" d="M158 349.5q-2 25.5 15 44t42 20.5q57 4 164 6h2q201 6 311 20q27 4 46.5 -11t23.5 -39.5t-11.5 -45t-39.5 -25.5q-119 -16 -326 -22h-2q-104 -2 -160 -6q-25 0 -44 16.5t-21 42zM162 853q-2 26 15 44.5t42 20.5q57 4 164 6h2h12v94q-2 82 -16 143q-4 25 9 46.5t39 26.5 t47.5 -8.5t25.5 -37.5q16 -74 18 -168v-90q94 4 176 14q27 4 46.5 -11t23.5 -40t-11.5 -45.5t-39.5 -24.5q-92 -12 -199 -18q-2 -72 -2 -117q2 -82 12 -141q4 -25 -10 -46.5t-38.5 -26.5t-46 9.5t-25.5 40.5q-12 70 -15 162q0 47 2 115h-4h-2q-104 -2 -160 -6q-25 0 -44 16 t-21 42z" />
<glyph unicode="&#xb2;" horiz-adv-x="544" d="M76 1331q6 49 47 78q29 20 61 27q49 10 84 -15q33 -25 45 -71q10 -33 9 -80q-2 -76 -29 -189q-12 -51 -31 -112q-14 -53 -39 -127h13q70 0 104 8q20 6 38.5 -5t24 -31.5t-6 -39t-34.5 -22.5q-45 -12 -124 -13q-37 0 -60 2q-16 2 -26 4q-8 2 -15 7q-16 6 -24 20 q-10 16 -9 37q2 4 2 8q2 4 5.5 13.5t13.5 39.5q25 76 39 127q18 59 29 109q25 102 26 166q2 33 -4 51q-2 8 -4 12v2q-2 0 -6 -2q-12 -2 -23 -10q-4 -2 -6 -8q-2 -23 -19.5 -35t-38 -9t-33.5 20.5t-9 37.5z" />
<glyph unicode="&#xb3;" horiz-adv-x="542" d="M90.5 1387.5q6.5 19.5 24.5 29.5q35 18 80 13q29 -4 61 -21q70 -31 88 -120t-27 -148q14 -16 29 -37q10 -12 19 -29q76 -135 0 -254q-33 -53 -91.5 -82.5t-126.5 -25.5q-20 0 -34.5 15t-13.5 36.5t16.5 36t36.5 14.5q86 -4 127 62q43 66 -5 147q-6 12 -12 23 q-18 25 -39 38q-4 2 -8 5q-39 10 -38 51t40 49h8q23 16 21 61q-2 51 -31 66q-20 8 -35 10q-8 2 -12 0h-4q-18 -10 -39 -4t-31 25.5t-3.5 39z" />
<glyph unicode="&#xb4;" horiz-adv-x="524" d="M195 1298.5q2 20.5 16 32.5q20 18 51 60q2 4 14.5 22.5t14.5 20.5q12 18 32.5 21t38 -9t20.5 -33t-9 -37q-2 -2 -14.5 -20.5t-14.5 -22.5q-37 -53 -68 -78q-16 -14 -36.5 -12t-33.5 18.5t-11 37z" />
<glyph unicode="&#xb7;" horiz-adv-x="428" d="M141 745q-4 25 10.5 46.5t38.5 25.5q35 7 58 -18q37 -16 37 -58q0 -12 -2 -20q-2 -18 -13 -33q-25 -33 -63 -24q-23 2 -37 20q-23 23 -29 61z" />
<glyph unicode="&#xb8;" horiz-adv-x="612" d="M115 -276.5q4 22.5 23.5 36t42 8t36.5 -23.5q14 -23 35 -25q23 0 70 19q33 12 34.5 65.5t-26.5 81.5q-2 0 -6 2h-21q-20 4 -35 13q-20 12 -28 37q-4 12 -7 26q-4 18 -4 49v43v15v4q-2 23 13.5 41t38 20t41 -13t20.5 -38v-30.5v-39.5v-16q35 -2 57 -23q76 -66 70 -178 q-4 -57 -30.5 -101t-73.5 -63q-72 -29 -119 -26q-76 4 -123 74q-12 20 -8 42.5z" />
<glyph unicode="&#xb9;" horiz-adv-x="368" d="M111 1077q-6 252 14 305q6 20 25.5 28.5t39 1.5t28.5 -25.5t3 -38.5q-4 -6 -6 -29q-2 -25 -2 -64q-2 -72 0 -176q4 -221 12 -266q4 -20 -7 -38.5t-32.5 -22.5t-39 8t-21.5 33q-10 53 -14 284z" />
<glyph unicode="&#xba;" horiz-adv-x="671" d="M63 1169q-8 96 33 174q51 90 148 111q131 31 211 -41q70 -63 73 -172q4 -100 -47 -184q-59 -96 -162 -113q-4 -2 -10 -2q-104 -6 -174 66q-61 63 -72 161zM165.5 1179.5q6.5 -63.5 43.5 -100.5q37 -39 98 -35q53 12 86 66q37 57 33 127q-2 66 -39 98q-41 37 -121 21 q-51 -12 -80 -62q-27 -51 -20.5 -114.5z" />
<glyph unicode="&#xbb;" horiz-adv-x="1050" d="M135.5 612.5q0.5 24.5 16.5 42.5q33 33 104 82q16 10 35 23q25 14 57 35q2 2 17 10q-10 4 -21 12q-4 2 -14.5 7t-19.5 11.5t-11 6.5q-25 14 -41 24q-59 35 -90 62q-18 16 -20.5 40.5t14 44t42 21.5t44.5 -14q23 -18 74 -49q14 -8 38 -23l11 -6q10 -4 20 -10t15 -8 q25 -14 40 -25q51 -31 72 -53q20 -25 14 -55q-2 -12 -10 -23q-4 -8 -10 -14q-6 -4 -14 -11q-12 -8 -37 -22q-4 -4 -14.5 -10t-21.5 -12.5t-11 -8.5q-31 -18 -56 -35q-20 -12 -32 -20q-63 -43 -86 -66q-18 -18 -44 -18t-43.5 18.5t-17 43zM513.5 982q-3.5 26 12 45.5t41 23.5 t43.5 -13q20 -14 62 -37q20 -10 55 -28l10 -6q10 -4 20.5 -9.5t14.5 -7.5q27 -14 45 -22q51 -29 74 -49q20 -23 16 -54q-2 -14 -8 -24q-4 -8 -12 -15q-4 -4 -13 -12q-10 -8 -34 -24q-4 -2 -14.5 -9.5t-20.5 -14.5t-12 -7q-31 -23 -52 -37q-16 -12 -30 -23q-61 -47 -84 -71 q-16 -18 -42 -20.5t-45.5 15t-20 43.5t15.5 44q31 35 102 88q16 12 33 22q20 16 53 39q2 0 4 2t5 4t5 4q-8 4 -20 11q-4 2 -14.5 7t-20.5 10t-10 7q-37 16 -60 29q-49 27 -75 49q-20 14 -23.5 40z" />
<glyph unicode="&#xbc;" horiz-adv-x="1249" d="M152 1020q-6 252 14 305q6 20 25.5 28.5t39 1.5t28.5 -26t3 -39q-4 -6 -6 -28q-2 -25 -2 -64q-2 -72 0 -176q4 -221 12 -266q4 -20 -7 -39t-32.5 -23t-39 8.5t-21.5 32.5q-10 53 -14 285zM213 219.5q-8 24.5 2 46.5q51 106 199 490q6 16 12 35q55 141 123 321 q23 57 49 127q27 74 31 86q10 25 33.5 35t47 2t33.5 -31.5t2 -48.5l-32 -86q-27 -70 -49 -127q-68 -180 -123 -324q-6 -16 -13 -32q-150 -389 -202 -500q-10 -23 -35 -31t-47.5 2.5t-30.5 35zM688 838q-4 20 8.5 37.5t34 21.5t37.5 -8t20 -35q20 -127 17 -231v-23q12 2 16 2 q61 10 123 14q-4 154 -12 267q-2 23 11 38t34.5 17t38 -11.5t18.5 -35.5q8 -115 13 -273h10q20 0 35.5 -14t15.5 -35.5t-15.5 -37t-35.5 -15.5h-5h-5q2 -76 0 -223v-135q0 -20 -15.5 -36t-36 -16t-36 15.5t-15.5 36.5v137q2 145 0 219q-53 -4 -108 -12q-4 0 -17 -2l-12 -2 q-16 -2 -25 -4q-16 0 -28 2q-23 4 -37 20q-12 14 -15 35q-2 10 -2 24q0 2 1 24t4 28q2 94 -17 211z" />
<glyph unicode="&#xbd;" horiz-adv-x="1148" d="M152 1020q-6 252 14 305q6 20 25.5 28.5t39 1.5t28.5 -26t3 -39q-4 -6 -6 -28q-2 -25 -2 -64q-2 -72 0 -176q4 -221 12 -266q4 -20 -7 -39t-32.5 -23t-39 8.5t-21.5 32.5q-10 53 -14 285zM213 219.5q-8 24.5 2 46.5q51 106 199 490q6 16 12 35q55 141 123 321 q23 57 49 127q27 74 31 86q10 25 33.5 35t47 2t33.5 -31.5t2 -48.5l-32 -86q-27 -70 -49 -127q-68 -180 -123 -324q-6 -16 -13 -32q-150 -389 -202 -500q-10 -23 -35 -31t-47.5 2.5t-30.5 35zM680 829q6 49 47 78q29 20 61 27q49 10 84 -14q33 -25 46 -72q10 -33 8 -80 q-2 -76 -29 -188q-12 -51 -31 -113q-14 -53 -39 -127h13q70 0 104 8q20 6 38.5 -5t24 -31.5t-6 -39t-33.5 -22.5q-45 -12 -125 -12q-37 0 -60 2q-16 2 -26 4q-8 2 -15 6q-16 6 -24 20q-10 16 -8 37q2 4 2 8q2 4 5 13.5t13 40.5q25 76 39 127q18 59 29 108q25 102 26 166 q2 33 -4 51q-2 8 -4 13v2q-2 0 -6 -2q-12 -2 -23 -11q-4 -2 -6 -8q-2 -23 -19.5 -35t-38 -9t-33.5 20.5t-9 37.5z" />
<glyph unicode="&#xbe;" horiz-adv-x="1249" d="M90.5 1387.5q6.5 19.5 24.5 29.5q35 18 80 13q29 -4 61 -21q70 -31 88 -120t-27 -148q14 -16 29 -37q10 -12 19 -29q76 -135 0 -254q-33 -53 -91.5 -82.5t-126.5 -25.5q-20 0 -34.5 15t-13.5 36.5t16.5 36t36.5 14.5q86 -4 127 62q43 66 -5 147q-6 12 -12 23 q-18 25 -39 38q-4 2 -8 5q-39 10 -38 51t40 49h8q23 16 21 61q-2 51 -31 66q-20 8 -35 10q-8 2 -12 0h-4q-18 -10 -39 -4t-31 25.5t-3.5 39zM213 219.5q-8 24.5 2 46.5q51 106 199 490q6 16 12 35q55 141 123 321q23 57 49 127q27 74 31 86q10 25 33.5 35t47 2t33.5 -31.5 t2 -48.5l-32 -86q-27 -70 -49 -127q-68 -180 -123 -324q-6 -16 -13 -32q-150 -389 -202 -500q-10 -23 -35 -31t-47.5 2.5t-30.5 35zM688 838q-4 20 8.5 37.5t34 21.5t37.5 -8t20 -35q20 -127 17 -231v-23q12 2 16 2q61 10 123 14q-4 154 -12 267q-2 23 11 38t34.5 17 t38 -11.5t18.5 -35.5q8 -115 13 -273h10q20 0 35.5 -14t15.5 -35.5t-15.5 -37t-35.5 -15.5h-5h-5q2 -76 0 -223v-135q0 -20 -15.5 -36t-36 -16t-36 15.5t-15.5 36.5v137q2 145 0 219q-53 -4 -108 -12q-4 0 -17 -2l-12 -2q-16 -2 -25 -4q-16 0 -28 2q-23 4 -37 20 q-12 14 -15 35q-2 10 -2 24q0 2 1 24t4 28q2 94 -17 211z" />
<glyph unicode="&#xbf;" horiz-adv-x="913" d="M128 -94q-5 78 15 141q16 45 50 96q20 29 61 78l4 4l2 4q4 4 6 9q68 82 80 131q25 84 33 202q6 80 4 217q0 25 18.5 43.5t44 18.5t43 -18.5t17.5 -43.5q2 -141 -4 -225q-10 -131 -37 -227q-12 -47 -45 -96q-18 -33 -60 -80q-2 -4 -6 -8l-2 -5l-4 -4q-72 -88 -88 -137 q-14 -39 -10 -95t24 -106q45 -104 123 -104q61 0 102.5 15.5t86.5 58.5q25 23 39 47q8 12 22 43q4 8 6 14q10 23 35 31t47.5 -2t31.5 -34.5t-3 -47.5q-2 -4 -4 -10q-18 -39 -31 -60q-23 -37 -61 -71q-61 -57 -124 -82t-147 -25t-149 55q-53 47 -86 125q-29 70 -34 148z M365 1059q-4 25 10 46t39 25q32 7 57 -20q37 -14 37 -55q0 -12 -2 -23q-2 -16 -12 -31q-25 -33 -64 -26q-23 4 -37 22q-23 20 -28 62z" />
<glyph unicode="&#xc0;" d="M182 115q25 123 72 311q18 70 43 170q4 14 22.5 87t22.5 87q16 68 31 119q88 350 127 557v2q-4 27 11 46t40 24q33 6 53 -19q25 -23 21 -55q61 -403 213 -1006q8 -35 36 -133q12 -51 21 -82q23 -82 33 -141q4 -25 -10.5 -45.5t-40 -25.5t-46 10.5t-24.5 39.5 q-10 55 -31 132q-2 14 -8 30q-2 0 -4 -2q-84 -8 -260 -10q-8 0 -25 -2q-104 -2 -151 -4q-14 -61 -25 -115q-6 -25 -27.5 -39t-46 -9t-39 26.5t-8.5 46.5zM356 330q39 2 121 2q16 0 25 2q159 2 233 8q-8 35 -16 66q-90 360 -162 718q-27 -115 -65 -268q-12 -51 -31 -117 q-4 -16 -22.5 -88.5t-22.5 -87.5q-25 -100 -43 -168q-8 -37 -17 -67zM411 1701.5q-1 22.5 13 40t37 18.5t39 -15q4 -2 19.5 -16.5t19.5 -16.5q49 -45 71 -78q12 -20 7 -41.5t-23.5 -34t-41 -8.5t-34.5 25q-14 23 -53 57q-2 2 -17.5 15.5t-19.5 17.5q-16 14 -17 36.5z" />
<glyph unicode="&#xc1;" d="M182 115q25 123 72 311q18 70 43 170q4 14 22.5 87t22.5 87q16 68 31 119q88 350 127 557v2q-4 27 11 46t40 24q33 6 53 -19q25 -23 21 -55q61 -403 213 -1006q8 -35 36 -133q12 -51 21 -82q23 -82 33 -141q4 -25 -10.5 -45.5t-40 -25.5t-46 10.5t-24.5 39.5 q-10 55 -31 132q-2 14 -8 30q-2 0 -4 -2q-84 -8 -260 -10q-8 0 -25 -2q-104 -2 -151 -4q-14 -61 -25 -115q-6 -25 -27.5 -39t-46 -9t-39 26.5t-8.5 46.5zM356 330q39 2 121 2q16 0 25 2q159 2 233 8q-8 35 -16 66q-90 360 -162 718q-27 -115 -65 -268q-12 -51 -31 -117 q-4 -16 -22.5 -88.5t-22.5 -87.5q-25 -100 -43 -168q-8 -37 -17 -67zM508 1624.5q2 22.5 20 36.5q20 16 52 57q2 2 14 20.5t16 20.5q12 18 35 22.5t40 -9t21 -36t-10 -40.5q-2 -4 -14 -21.5t-16 -21.5q-39 -51 -70 -78q-16 -12 -38.5 -10t-37 19.5t-12.5 40z" />
<glyph unicode="&#xc2;" d="M182 115q25 123 72 311q18 70 43 170q4 14 22.5 87t22.5 87q16 68 31 119q88 350 127 557v2q-4 27 11 46t40 24q33 6 53 -19q25 -23 21 -55q61 -403 213 -1006q8 -35 36 -133q12 -51 21 -82q23 -82 33 -141q4 -25 -10.5 -45.5t-40 -25.5t-46 10.5t-24.5 39.5 q-10 55 -31 132q-2 14 -8 30q-2 0 -4 -2q-84 -8 -260 -10q-8 0 -25 -2q-104 -2 -151 -4q-14 -61 -25 -115q-6 -25 -27.5 -39t-46 -9t-39 26.5t-8.5 46.5zM356 330q39 2 121 2q16 0 25 2q159 2 233 8q-8 35 -16 66q-90 360 -162 718q-27 -115 -65 -268q-12 -51 -31 -117 q-4 -16 -22.5 -88.5t-22.5 -87.5q-25 -100 -43 -168q-8 -37 -17 -67zM403 1642q27 70 76 162q4 8 10 17q29 41 74 39q35 -2 64 -35q25 -29 53 -99q0 -4 4 -12t7 -16t5 -15l2 -6q10 -23 15 -30q10 -20 4 -43t-27.5 -34t-43 -4t-34.5 27q-6 12 -18 41l-4 11q-4 10 -8 21t-7 17 q-8 18 -14 33q-33 -61 -51 -112q-8 -23 -29.5 -32t-44 -1t-32 29.5t-1.5 41.5z" />
<glyph unicode="&#xc3;" d="M182 115q25 123 72 311q18 70 43 170q4 14 22.5 87t22.5 87q16 68 31 119q88 350 127 557v2q-4 27 11 46t40 24q33 6 53 -19q25 -23 21 -55q61 -403 213 -1006q8 -35 36 -133q12 -51 21 -82q23 -82 33 -141q4 -25 -10.5 -45.5t-40 -25.5t-46 10.5t-24.5 39.5 q-10 55 -31 132q-2 14 -8 30q-2 0 -4 -2q-84 -8 -260 -10q-8 0 -25 -2q-104 -2 -151 -4q-14 -61 -25 -115q-6 -25 -27.5 -39t-46 -9t-39 26.5t-8.5 46.5zM300 1677.5q-7 22.5 5 42.5q31 57 74 76q43 20 94 0q23 -10 49 -33q14 -12 39 -34q39 -39 53 -46q6 6 15 17l6 6l2 2 q2 2 2 4q8 6 12 12q10 12 19 21q16 16 39.5 16t40 -16t16.5 -40t-16 -40q-6 -6 -15 -16q-4 -4 -10 -11q-2 -2 -3 -4t-3 -2q-2 -4 -4 -6q-14 -16 -25 -27q-55 -55 -127 -16q-20 10 -43 31q-12 10 -37 33q-41 39 -55 45l-2 2h-2q-2 -2 -6 -4q-6 -8 -15 -23 q-12 -20 -33.5 -27.5t-42 4t-27.5 34zM356 330q39 2 121 2q16 0 25 2q159 2 233 8q-8 35 -16 66q-90 360 -162 718q-27 -115 -65 -268q-12 -51 -31 -117q-4 -16 -22.5 -88.5t-22.5 -87.5q-25 -100 -43 -168q-8 -37 -17 -67z" />
<glyph unicode="&#xc4;" d="M182 115q25 123 72 311q18 70 43 170q4 14 22.5 87t22.5 87q16 68 31 119q88 350 127 557v2q-4 27 11 46t40 24q33 6 53 -19q25 -23 21 -55q61 -403 213 -1006q8 -35 36 -133q12 -51 21 -82q23 -82 33 -141q4 -25 -10.5 -45.5t-40 -25.5t-46 10.5t-24.5 39.5 q-10 55 -31 132q-2 14 -8 30q-2 0 -4 -2q-84 -8 -260 -10q-8 0 -25 -2q-104 -2 -151 -4q-14 -61 -25 -115q-6 -25 -27.5 -39t-46 -9t-39 26.5t-8.5 46.5zM356 330q39 2 121 2q16 0 25 2q159 2 233 8q-8 35 -16 66q-90 360 -162 718q-27 -115 -65 -268q-12 -51 -31 -117 q-4 -16 -22.5 -88.5t-22.5 -87.5q-25 -100 -43 -168q-8 -37 -17 -67zM356 1696q-4 25 10.5 45t39.5 24q32 7 57 -18q37 -16 37 -57q0 -10 -2 -21q-2 -18 -13 -31q-25 -35 -63 -26q-23 4 -37 20q-23 23 -29 64zM571 1702q-4 25 10.5 46t39.5 26q34 6 57 -19q37 -16 37 -57 q0 -12 -2 -21q-2 -18 -13 -32q-23 -33 -63 -25q-20 4 -37 20q-20 23 -29 62z" />
<glyph unicode="&#xc5;" d="M182 115q25 123 72 311q18 70 43 170q4 14 22.5 87t22.5 87q16 68 31 119q88 350 127 557v2q-4 27 11 46t40 24q33 6 53 -19q25 -23 21 -55q61 -403 213 -1006q8 -35 36 -133q12 -51 21 -82q23 -82 33 -141q4 -25 -10.5 -45.5t-40 -25.5t-46 10.5t-24.5 39.5 q-10 55 -31 132q-2 14 -8 30q-2 0 -4 -2q-84 -8 -260 -10q-8 0 -25 -2q-104 -2 -151 -4q-14 -61 -25 -115q-6 -25 -27.5 -39t-46 -9t-39 26.5t-8.5 46.5zM356 330q39 2 121 2q16 0 25 2q159 2 233 8q-8 35 -16 66q-90 360 -162 718q-27 -115 -65 -268q-12 -51 -31 -117 q-4 -16 -22.5 -88.5t-22.5 -87.5q-25 -100 -43 -168q-8 -37 -17 -67zM410 1708q-8 68 24.5 121t93.5 65q86 20 142 -28q45 -41 49 -113q2 -66 -31 -119q-39 -63 -106 -73q-7 -2 -11 -2q-70 -4 -114 45q-41 41 -47 104zM512 1718q2 -29 18 -45q12 -14 37 -12q20 6 34.5 31.5 t14.5 56.5q-2 29 -16 41t-49 6q-20 -6 -31 -24q-12 -23 -8 -54z" />
<glyph unicode="&#xc6;" horiz-adv-x="1378" d="M182 115q25 123 72 311q18 70 43 170q4 14 22.5 87t22.5 87q16 68 31 119q88 350 127 557v2q-4 27 11 46t40 24q33 6 53 -19q25 -23 21 -55q49 -322 174 -844v121q4 244 8 432q4 205 10 229v6.5t-2 4.5q-4 27 10 47t41 24q78 14 150 9q90 -8 153 -52q23 -14 28 -38.5 t-9 -46t-40 -26.5t-46 9q-59 39 -166 31v-4q-2 -18 -2 -48q-2 -55 -4 -147q-4 -125 -6 -285q16 2 43 4q16 2 22 2q53 6 103 -6q25 -6 38 -27.5t8 -46t-26.5 -38t-46.5 -6.5q-31 6 -64 2q-6 0 -20 -2q-35 -4 -57 -5q-2 -12 -2 -24q-2 -256 0 -424q0 -92 2 -143v-19 q33 -4 88 -2q47 0 96 4q20 2 35 4q12 0 16 2q25 6 46.5 -7t27.5 -38.5t-7.5 -47t-37.5 -28.5q-47 -10 -174 -12q-63 -2 -105 2q-12 2 -22 4l-8 -4q-27 -4 -47.5 11.5t-24.5 39.5q-10 55 -31 132q-2 14 -8 30q-2 0 -4 -2q-84 -8 -260 -10q-8 0 -25 -2q-104 -2 -151 -4 q-14 -61 -25 -115q-6 -25 -27.5 -39t-46 -9t-39 26.5t-8.5 46.5zM356 330q39 2 121 2q16 0 25 2q159 2 233 8q-8 35 -16 66q-90 360 -162 718q-27 -115 -65 -268q-12 -51 -31 -117q-4 -16 -22.5 -88.5t-22.5 -87.5q-25 -100 -43 -168q-8 -37 -17 -67z" />
<glyph unicode="&#xc7;" horiz-adv-x="886" d="M102 625q-33 246 35 460q74 238 240 326q51 27 160 41q111 16 161 2q25 -6 38.5 -28.5t6 -47t-29.5 -37t-47 -6.5q-27 8 -113 -4t-119 -31q-121 -61 -180 -251q-59 -188 -29 -408q31 -225 142 -365q119 -150 299 -149q25 0 43 -18.5t18 -43t-18.5 -43t-42.5 -18.5 q-70 0 -136 19v-5v-16q35 -2 58 -22q76 -66 69 -179q-4 -57 -30.5 -101t-73.5 -62q-72 -29 -119 -27q-76 4 -123 74q-12 20 -8 42.5t23.5 36t42 8.5t37.5 -24q14 -23 34 -24q23 0 70 18q33 12 35 65.5t-27 81.5q-2 0 -6 2h-20q-20 4 -35 13q-20 12 -29 37q-4 12 -6 26 q-4 18 -4 49v43v11q-82 49 -148 131q-133 166 -168 424z" />
<glyph unicode="&#xc8;" horiz-adv-x="768" d="M188 285q-2 170 0 428q4 242 9 432q4 205 10 229v6t-2 4q-4 27 10 47.5t41 24.5q78 14 150 8q90 -8 153 -51q23 -14 28 -38.5t-9.5 -46t-40 -27t-45.5 9.5q-59 39 -166 30v-4q-2 -18 -2 -47q-2 -55 -5 -147q-4 -125 -6 -285q16 2 43 4q16 2 23 2q53 6 102 -6 q25 -6 38 -27.5t8 -46t-26.5 -38t-45.5 -7.5q-31 6 -64 2q-6 0 -20 -2q-35 -4 -58 -4q-2 -12 -2 -24q-2 -256 0 -424q0 -92 2 -144v-18q33 -4 88 -2q47 0 97 4q20 2 34 4q12 0 17 2q25 6 46 -7t27.5 -39t-7 -47.5t-37.5 -27.5q-47 -10 -175 -12q-63 -2 -104 2q-27 2 -45 8 q-12 4 -23 10q-20 12 -30 31q-6 14 -8 43q-2 16 -3 45q-2 53 -2 146zM228.5 1654.5q-1.5 22.5 14 39t38 17.5t38.5 -13q4 -2 19.5 -16.5t17.5 -16.5q49 -45 72 -80q12 -18 8 -39.5t-23.5 -34t-41 -8.5t-33.5 23q-14 23 -53 57q-2 2 -18.5 16.5t-20.5 18.5q-16 14 -17.5 36.5 z" />
<glyph unicode="&#xc9;" horiz-adv-x="768" d="M188 285q-2 170 0 428q4 242 9 432q4 205 10 229v6t-2 4q-4 27 10 47.5t41 24.5q78 14 150 8q90 -8 153 -51q23 -14 28 -38.5t-9.5 -46t-40 -27t-45.5 9.5q-59 39 -166 30v-4q-2 -18 -2 -47q-2 -55 -5 -147q-4 -125 -6 -285q16 2 43 4q16 2 23 2q53 6 102 -6 q25 -6 38 -27.5t8 -46t-26.5 -38t-45.5 -7.5q-31 6 -64 2q-6 0 -20 -2q-35 -4 -58 -4q-2 -12 -2 -24q-2 -256 0 -424q0 -92 2 -144v-18q33 -4 88 -2q47 0 97 4q20 2 34 4q12 0 17 2q25 6 46 -7t27.5 -39t-7 -47.5t-37.5 -27.5q-47 -10 -175 -12q-63 -2 -104 2q-27 2 -45 8 q-12 4 -23 10q-20 12 -30 31q-6 14 -8 43q-2 16 -3 45q-2 53 -2 146zM311 1566.5q2 22.5 21 37.5q20 16 51 57q2 2 14.5 20.5t16.5 20.5q12 18 34.5 22.5t40 -9t21.5 -36.5t-10 -41q-2 -4 -14.5 -21.5t-16.5 -21.5q-39 -51 -70 -77q-16 -12 -38.5 -10.5t-37 19t-12.5 40z " />
<glyph unicode="&#xca;" horiz-adv-x="768" d="M188 285q-2 170 0 428q4 242 9 432q4 205 10 229v6t-2 4q-4 27 10 47.5t41 24.5q78 14 150 8q90 -8 153 -51q23 -14 28 -38.5t-9.5 -46t-40 -27t-45.5 9.5q-59 39 -166 30v-4q-2 -18 -2 -47q-2 -55 -5 -147q-4 -125 -6 -285q16 2 43 4q16 2 23 2q53 6 102 -6 q25 -6 38 -27.5t8 -46t-26.5 -38t-45.5 -7.5q-31 6 -64 2q-6 0 -20 -2q-35 -4 -58 -4q-2 -12 -2 -24q-2 -256 0 -424q0 -92 2 -144v-18q33 -4 88 -2q47 0 97 4q20 2 34 4q12 0 17 2q25 6 46 -7t27.5 -39t-7 -47.5t-37.5 -27.5q-47 -10 -175 -12q-63 -2 -104 2q-27 2 -45 8 q-12 4 -23 10q-20 12 -30 31q-6 14 -8 43q-2 16 -3 45q-2 53 -2 146zM203 1610q27 70 76 162q4 8 10 16q29 41 73 39q35 -2 64 -35q25 -29 53 -98q0 -4 4 -12.5t7.5 -16.5t5.5 -14l2 -6q10 -23 14 -31q10 -20 4 -43t-27.5 -34t-43 -4t-33.5 28q-6 12 -19 41l-4 10 q-4 10 -8 21.5t-6 17.5q-8 18 -15 32q-33 -61 -51 -112q-8 -23 -29.5 -32t-44 -1t-31.5 30t-1 42z" />
<glyph unicode="&#xcb;" horiz-adv-x="768" d="M188 285q-2 170 0 428q4 242 9 432q4 205 10 229v6t-2 4q-4 27 10 47.5t41 24.5q78 14 150 8q90 -8 153 -51q23 -14 28 -38.5t-9.5 -46t-40 -27t-45.5 9.5q-59 39 -166 30v-4q-2 -18 -2 -47q-2 -55 -5 -147q-4 -125 -6 -285q16 2 43 4q16 2 23 2q53 6 102 -6 q25 -6 38 -27.5t8 -46t-26.5 -38t-45.5 -7.5q-31 6 -64 2q-6 0 -20 -2q-35 -4 -58 -4q-2 -12 -2 -24q-2 -256 0 -424q0 -92 2 -144v-18q33 -4 88 -2q47 0 97 4q20 2 34 4q12 0 17 2q25 6 46 -7t27.5 -39t-7 -47.5t-37.5 -27.5q-47 -10 -175 -12q-63 -2 -104 2q-27 2 -45 8 q-12 4 -23 10q-20 12 -30 31q-6 14 -8 43q-2 16 -3 45q-2 53 -2 146zM201 1618q-4 25 10 45t39 25q32 6 57 -19q37 -16 37 -57q0 -10 -2 -21q-2 -18 -12 -30q-25 -35 -64 -27q-23 4 -37 20q-23 23 -28 64zM414 1614q-4 25 10 45t39 24q32 7 57 -18q37 -16 37 -57 q0 -10 -2 -21q-2 -18 -12 -31q-25 -35 -64 -26q-23 4 -37 20q-23 23 -28 64z" />
<glyph unicode="&#xcc;" horiz-adv-x="466" d="M83 1665q-1 23 13.5 40t37 18t38.5 -15q4 -2 19.5 -16.5t19.5 -16.5q49 -45 72 -78q12 -20 7 -41.5t-23.5 -34t-41 -8t-35.5 24.5q-14 23 -53 57q-2 2 -17.5 15.5t-19.5 17.5q-16 14 -17 37zM160 735q2 115 8 291q10 285 10 350q0 27 17.5 44.5t43 17.5t44 -17.5 t18.5 -44.5q0 -68 -10 -354q-6 -176 -8 -289q-10 -506 39 -655q8 -23 -4.5 -45.5t-36 -30.5t-46 3t-30.5 36q-55 168 -45 694z" />
<glyph unicode="&#xcd;" horiz-adv-x="538" d="M160 735q2 115 8 291q10 285 10 350q0 27 17.5 44.5t43 17.5t44 -17.5t18.5 -44.5q0 -68 -10 -354q-6 -176 -8 -289q-10 -506 39 -655q8 -23 -4.5 -45.5t-36 -30.5t-46 3t-30.5 36q-55 168 -45 694zM197 1570.5q2 22.5 20 37.5q20 16 51 57q2 2 14.5 20.5t16.5 20.5 q12 18 34.5 22.5t40 -9t21.5 -36.5t-10 -41q-2 -4 -14.5 -21t-16.5 -22q-39 -51 -69 -77q-16 -12 -39 -10.5t-37 19t-12 40z" />
<glyph unicode="&#xce;" horiz-adv-x="542" d="M84 1569q27 70 76 162q4 8 10 16q29 41 74 39q35 -2 63 -35q25 -29 53 -98q0 -4 4.5 -12.5t7.5 -16.5t5 -14l2 -6q10 -23 14 -31q10 -20 4 -43t-27.5 -34t-43 -4t-33.5 28q-6 12 -19 41l-4 10q-4 10 -8 21.5t-6 17.5q-8 18 -14 32q-33 -61 -52 -112q-8 -23 -29.5 -32 t-44 -1t-31.5 30t-1 42zM160 735q2 115 8 291q10 285 10 350q0 27 17.5 44.5t43 17.5t44 -17.5t18.5 -44.5q0 -68 -10 -354q-6 -176 -8 -289q-10 -506 39 -655q8 -23 -4.5 -45.5t-36 -30.5t-46 3t-30.5 36q-55 168 -45 694z" />
<glyph unicode="&#xcf;" horiz-adv-x="559" d="M82 1602q-4 25 10 45t39 24q32 7 57 -18q37 -16 37 -58q0 -10 -2 -20q-2 -18 -12 -31q-25 -35 -64 -26q-23 4 -36 20q-23 23 -29 64zM160 735q2 115 8 291q10 285 10 350q0 27 17.5 44.5t43 17.5t44 -17.5t18.5 -44.5q0 -68 -10 -354q-6 -176 -8 -289q-10 -506 39 -655 q8 -23 -4.5 -45.5t-36 -30.5t-46 3t-30.5 36q-55 168 -45 694zM274 1597q-4 25 10.5 45.5t39.5 24.5q32 7 57 -18q37 -16 37 -58q0 -10 -2 -20q-2 -18 -13 -31q-25 -35 -63 -27q-23 4 -37 21q-23 23 -29 63z" />
<glyph unicode="&#xd1;" horiz-adv-x="995" d="M143 657q2 188 11 351v10q4 74 6 108q4 84 4 148q0 45 2 96v31q2 4 2 8v4q0 31 25.5 47.5t54.5 7.5q27 -8 49 -41q12 -16 29 -47q27 -53 69 -147q72 -166 176 -436q72 -190 142 -383q-6 150 -6 334v231v229v17v6v10v4q2 70 0 113q0 31 -3.5 56.5t13 45t42 21.5t45 -14.5 t21.5 -41.5q2 -29 4 -63q2 -47 0 -119v-6v-8v-6v-15v-229v-231q0 -281 17 -500q8 -92 8 -258q0 -25 -18.5 -43.5t-42.5 -18.5q-41 0 -58 37q-4 8 -6 17q-53 199 -272 772q-100 262 -172 424q0 -27 -2 -58q-2 -35 -7 -108v-13q-8 -158 -10 -342q0 -164 8 -505q2 -90 2 -140 q0 -27 -17 -45t-43 -18t-44 17t-18 42q0 51 -2 139q-8 346 -9 510zM231 1647.5q-7 23.5 5 46.5q35 63 79 84q49 23 105 0q25 -12 55 -35q14 -14 43 -41q43 -41 57 -49q8 6 19 18l6 6q0 2 2 4t4 2q6 8 12 15q10 12 21 22q18 18 44 18.5t43 -18t17 -43t-18 -43.5 q-6 -8 -16 -18q-4 -4 -11 -12q-2 -2 -3 -4.5t-3 -2.5l-6 -6q-14 -18 -27 -28q-61 -61 -139 -19q-23 10 -47 33q-12 10 -41 37q-43 43 -61 51h-4h-2q-2 -2 -5 -4q-8 -8 -16 -25q-12 -23 -36.5 -30t-47 5.5t-29.5 36z" />
<glyph unicode="&#xd2;" horiz-adv-x="1032" d="M111 631q-16 276 51 499q76 260 237 326q119 47 215.5 13.5t161.5 -140.5q106 -172 113 -479q6 -293 -76 -537q-96 -283 -266 -338q-13 -4 -25 -2q-94 -10 -174 43q-74 51 -127 154q-94 178 -110 461zM233 639q14 -256 97 -412q39 -76 88 -108q45 -31 100 -23 q106 43 178 256q76 223 70 494q-6 276 -94 420q-82 135 -226 77q-106 -45 -167 -247q-59 -203 -46 -457zM370 1677q-1 23 13 40.5t37 18t39 -15.5q4 -2 19.5 -16t19.5 -16q49 -45 71 -78q12 -20 7 -42t-23 -34t-41 -8t-35 24q-14 23 -53 58q-2 2 -17.5 15t-19.5 17 q-16 14 -17 37z" />
<glyph unicode="&#xd3;" horiz-adv-x="1032" d="M111 631q-16 276 51 499q76 260 237 326q119 47 215.5 13.5t161.5 -140.5q106 -172 113 -479q6 -293 -76 -537q-96 -283 -266 -338q-13 -4 -25 -2q-94 -10 -174 43q-74 51 -127 154q-94 178 -110 461zM233 639q14 -256 97 -412q39 -76 88 -108q45 -31 100 -23 q106 43 178 256q76 223 70 494q-6 276 -94 420q-82 135 -226 77q-106 -45 -167 -247q-59 -203 -46 -457zM446.5 1599.5q2.5 22.5 20.5 36.5q20 16 51 58q2 2 14.5 20.5t16.5 20.5q12 18 34.5 22t40 -9t21.5 -36t-10 -41q-2 -4 -14.5 -21.5t-16.5 -21.5q-39 -51 -69 -78 q-16 -12 -39 -10t-37.5 19.5t-12 40z" />
<glyph unicode="&#xd4;" horiz-adv-x="1032" d="M111 631q-16 276 51 499q76 260 237 326q119 47 215.5 13.5t161.5 -140.5q106 -172 113 -479q6 -293 -76 -537q-96 -283 -266 -338q-13 -4 -25 -2q-94 -10 -174 43q-74 51 -127 154q-94 178 -110 461zM233 639q14 -256 97 -412q39 -76 88 -108q45 -31 100 -23 q106 43 178 256q76 223 70 494q-6 276 -94 420q-82 135 -226 77q-106 -45 -167 -247q-59 -203 -46 -457zM342 1614q27 70 76 162q4 8 10 16q29 41 74 39q35 -2 63 -35q25 -29 53 -98q0 -4 4.5 -12.5t7.5 -16.5t5 -14l2 -6q10 -23 14 -31q10 -20 4 -43t-27.5 -34t-43 -4 t-33.5 28q-6 12 -19 41l-4 10q-4 10 -8 21.5t-6 17.5q-8 18 -14 33q-33 -61 -51 -113q-8 -23 -30 -32t-44.5 -1t-31.5 30t-1 42z" />
<glyph unicode="&#xd5;" horiz-adv-x="1032" d="M111 631q-16 276 51 499q76 260 237 326q119 47 215.5 13.5t161.5 -140.5q106 -172 113 -479q6 -293 -76 -537q-96 -283 -266 -338q-13 -4 -25 -2q-94 -10 -174 43q-74 51 -127 154q-94 178 -110 461zM233 639q14 -256 97 -412q39 -76 88 -108q45 -31 100 -23 q106 43 178 256q76 223 70 494q-6 276 -94 420q-82 135 -226 77q-106 -45 -167 -247q-59 -203 -46 -457zM292 1636.5q-7 22.5 5 42.5q31 57 74 76q43 20 94 0q23 -10 49 -33q14 -12 39 -34q39 -39 53 -46q6 6 15 17l6 6l2 2q2 2 2 4q8 6 12 12q10 12 19 21q16 16 39.5 16 t40 -16t16.5 -40t-17 -40q-6 -6 -14 -16q-4 -4 -10 -11q-2 -2 -3 -4t-3 -2q-2 -4 -4 -6q-14 -16 -25 -26q-55 -55 -127 -17q-20 10 -43 31q-12 10 -37 33q-41 39 -55 45l-2 2h-2q-2 -2 -6 -4q-6 -8 -15 -23q-12 -20 -33.5 -27.5t-42 4t-27.5 34z" />
<glyph unicode="&#xd6;" horiz-adv-x="1032" d="M111 631q-16 276 51 499q76 260 237 326q119 47 215.5 13.5t161.5 -140.5q106 -172 113 -479q6 -293 -76 -537q-96 -283 -266 -338q-13 -4 -25 -2q-94 -10 -174 43q-74 51 -127 154q-94 178 -110 461zM233 639q14 -256 97 -412q39 -76 88 -108q45 -31 100 -23 q106 43 178 256q76 223 70 494q-6 276 -94 420q-82 135 -226 77q-106 -45 -167 -247q-59 -203 -46 -457zM332 1647q-4 25 10 45t39 24q32 7 57 -18q37 -16 37 -58q0 -10 -2 -20q-2 -18 -12 -31q-25 -35 -64 -26q-23 4 -37 20q-23 23 -28 64zM551 1657q-4 25 10 46t39 26 q34 6 57 -19q37 -16 37 -57q0 -12 -2 -21q-2 -18 -12 -33q-23 -33 -64 -24q-20 4 -36 20q-20 23 -29 62z" />
<glyph unicode="&#xd7;" horiz-adv-x="880" d="M170.5 1008.5q-4.5 25.5 11 46t40 24.5t44.5 -10q61 -45 129 -115q29 -33 66 -75l4 8q92 117 149 198q14 23 39 27t46.5 -10.5t26.5 -39t-9 -44.5q-59 -88 -154 -207q-10 -14 -22 -27q41 -49 71 -79q53 -59 103 -97q20 -14 23 -39.5t-12 -46t-41 -23.5t-46 11 q-55 43 -117 111q-29 29 -59 65q-20 -27 -56 -71t-60.5 -73.5t-33.5 -39.5q-14 -18 -39.5 -21.5t-45 12t-22.5 41t13 46.5q8 10 37 44.5t66.5 83t60.5 74.5q-45 53 -78 88q-59 61 -110 99q-20 14 -24.5 39.5z" />
<glyph unicode="&#xd8;" horiz-adv-x="1060" d="M91 117.5q-5 25.5 9 46.5q27 41 72 119q-51 154 -61 348q-16 276 51 499q76 260 237 326q113 45 204 17.5t157 -119.5q37 68 43 82q12 20 36.5 28.5t47 -4t29.5 -37t-5 -47.5l-55 -102q-14 -29 -29 -53q57 -156 62 -371q6 -293 -76 -537q-96 -283 -266 -338 q-12 -4 -25 -2q-94 -10 -174 43q-66 45 -115 129q-18 -29 -30 -49q-14 -20 -39 -25t-46.5 8t-26.5 38.5zM233 639q7 -109 27 -205q76 135 180 328q8 16 17 31q94 172 209 387q14 25 26 47q-10 20 -20 39q-82 135 -226 77q-106 -45 -167 -247q-59 -203 -46 -457zM307 272 q10 -25 23 -45q39 -76 88 -108q45 -31 100 -23q106 43 178 256q76 223 70 494q-2 119 -23 217q-96 -180 -178 -330q-8 -14 -16 -31q-150 -272 -242 -430z" />
<glyph unicode="&#xd9;" horiz-adv-x="864" d="M139 739q4 162 23 381q0 4 4 39t7 74l6 78t5 49q2 27 20.5 43t44 14t43 -20t15.5 -45q-2 -12 -5 -51t-7 -78t-7 -75t-3 -38q-18 -217 -23 -373q-6 -305 41 -465q27 -88 68 -125q37 -37 90 -30q31 4 63 30q43 33 57.5 86.5t16.5 141.5q2 68 -4 182q0 16 -2 47v6q-2 4 -2 6 v13q-2 25 -2 47q-10 227 0 534q0 16 2 69.5t2 59.5q0 25 18.5 42.5t44 16.5t43 -19.5t17.5 -43.5q0 -6 -2 -59t-2 -70q-10 -301 0 -524q0 -23 2 -47v-12v-7q2 -2 2 -6q0 -29 2 -45q6 -121 4 -192q-2 -104 -21 -174q-27 -90 -100 -148q-59 -49 -125 -55q-111 -12 -190 61 q-63 61 -99 181q-53 178 -47 501zM292 1619.5q-1 22.5 13 40t37 18.5t39 -15q4 -2 19.5 -16.5t19.5 -16.5q49 -45 72 -78q12 -20 7 -41.5t-23.5 -34t-41 -8t-35.5 24.5q-14 23 -53 57q-2 2 -17.5 15.5t-19.5 17.5q-16 14 -17 36.5z" />
<glyph unicode="&#xda;" horiz-adv-x="864" d="M139 739q4 162 23 381q0 4 4 39t7 74l6 78t5 49q2 27 20.5 43t44 14t43 -20t15.5 -45q-2 -12 -5 -51t-7 -78t-7 -75t-3 -38q-18 -217 -23 -373q-6 -305 41 -465q27 -88 68 -125q37 -37 90 -30q31 4 63 30q43 33 57.5 86.5t16.5 141.5q2 68 -4 182q0 16 -2 47v6q-2 4 -2 6 v13q-2 25 -2 47q-10 227 0 534q0 16 2 69.5t2 59.5q0 25 18.5 42.5t44 16.5t43 -19.5t17.5 -43.5q0 -6 -2 -59t-2 -70q-10 -301 0 -524q0 -23 2 -47v-12v-7q2 -2 2 -6q0 -29 2 -45q6 -121 4 -192q-2 -104 -21 -174q-27 -90 -100 -148q-59 -49 -125 -55q-111 -12 -190 61 q-63 61 -99 181q-53 178 -47 501zM418 1521.5q2 22.5 20 37.5q20 16 51 57q2 2 14.5 20.5t16.5 20.5q12 18 35 22t40 -9t21 -36t-10 -41q-2 -4 -14 -21.5t-17 -21.5q-39 -51 -69 -77q-16 -12 -39 -10.5t-37 19t-12 40z" />
<glyph unicode="&#xdb;" horiz-adv-x="864" d="M139 739q4 162 23 381q0 4 4 39t7 74l6 78t5 49q2 27 20.5 43t44 14t43 -20t15.5 -45q-2 -12 -5 -51t-7 -78t-7 -75t-3 -38q-18 -217 -23 -373q-6 -305 41 -465q27 -88 68 -125q37 -37 90 -30q31 4 63 30q43 33 57.5 86.5t16.5 141.5q2 68 -4 182q0 16 -2 47v2q0 2 -1 4 t-1 3v3v13q-2 25 -2 47q-10 227 0 534q0 16 2 69.5t2 59.5q0 25 18.5 42.5t44 16.5t43 -19.5t17.5 -43.5q0 -6 -2 -59t-2 -70q-10 -301 0 -524q0 -23 2 -47v-12v-7q2 -2 2 -6q0 -29 2 -45q6 -121 4 -192q-2 -104 -21 -174q-27 -90 -100 -148q-59 -49 -125 -55 q-111 -12 -190 61q-63 61 -99 181q-53 178 -47 501zM305 1540q27 70 76 162q4 8 10 16q29 41 74 39q35 -2 63 -35q25 -29 54 -98q0 -4 4 -12t7 -16.5t5 -14.5l2 -6q10 -23 14 -31q10 -20 4 -42.5t-27.5 -34t-43 -4.5t-33.5 28q-6 12 -18 41l-4 10q-4 10 -8.5 21.5t-6.5 17.5 q-8 18 -14 33q-33 -61 -51 -113q-8 -23 -30 -32t-44.5 -0.5t-31.5 30t-1 41.5z" />
<glyph unicode="&#xdc;" horiz-adv-x="864" d="M139 739q4 162 23 381q0 4 4 39t7 74l6 78t5 49q2 27 20.5 43t44 14t43 -20t15.5 -45q-2 -12 -5 -51t-7 -78t-7 -75t-3 -38q-18 -217 -23 -373q-6 -305 41 -465q27 -88 68 -125q37 -37 90 -30q31 4 63 30q43 33 57.5 86.5t16.5 141.5q2 68 -4 182q0 16 -2 47v6q-2 4 -2 6 v13q-2 25 -2 47q-10 227 0 534q0 16 2 69.5t2 59.5q0 25 18.5 42.5t44 16.5t43 -19.5t17.5 -43.5q0 -6 -2 -59t-2 -70q-10 -301 0 -524q0 -23 2 -47v-12v-7q2 -2 2 -6q0 -29 2 -45q6 -121 4 -192q-2 -104 -21 -174q-27 -90 -100 -148q-59 -49 -125 -55q-111 -12 -190 61 q-63 61 -99 181q-53 178 -47 501zM258 1548q-4 25 10.5 45.5t38.5 24.5q33 6 58 -19q37 -16 36 -57q0 -10 -2 -20q-2 -18 -12 -31q-25 -35 -63 -27q-23 4 -37 21q-23 23 -29 63zM489 1546q-4 25 10.5 46.5t39.5 25.5q34 6 57 -19q37 -16 37 -57q0 -12 -2 -20q-2 -18 -13 -33 q-23 -33 -63 -25q-20 4 -37 21q-20 23 -29 61z" />
<glyph unicode="&#xdd;" horiz-adv-x="974" d="M92 1405q-8 25 2 47.5t34 31.5t47.5 -1t31.5 -35q2 -2 13 -33t24.5 -64.5t17.5 -47.5q31 -80 53 -136q74 -188 138 -325q2 -2 2 -6q18 35 45 92q51 109 71 149q96 209 140 375q6 25 27.5 38t46 7t38 -27.5t6.5 -46.5q-45 -178 -147 -397q-18 -43 -72 -152 q-47 -96 -73 -155q-10 -23 -21 -45l-2 -2q0 -61 -2 -158q-4 -113 -4 -156q-2 -150 16 -292q2 -25 -13 -45.5t-41 -23.5t-46.5 13.5t-22.5 40.5q-18 152 -16 307q0 47 4 160q2 102 4 168q-27 51 -51 105q-68 139 -141 331q-23 57 -54 138q-4 14 -17 46.5t-24.5 64.5t-13.5 34 zM414 1554.5q2 22.5 20 36.5q20 16 51 58q2 2 14.5 20.5t16.5 20.5q12 18 34.5 22t40 -9t21.5 -36t-10 -41q-2 -4 -14.5 -21.5t-16.5 -21.5q-39 -51 -69 -78q-16 -12 -39 -10t-37 19.5t-12 40z" />
<glyph unicode="&#xe0;" d="M182 115q25 123 72 311q18 70 43 170q4 14 22.5 87t22.5 87q16 68 31 119q88 350 127 557v2q-4 27 11 46t40 24q33 6 53 -19q25 -23 21 -55q61 -403 213 -1006q8 -35 36 -133q12 -51 21 -82q23 -82 33 -141q4 -25 -10.5 -45.5t-40 -25.5t-46 10.5t-24.5 39.5 q-10 55 -31 132q-2 14 -8 30q-2 0 -4 -2q-84 -8 -260 -10q-8 0 -25 -2q-104 -2 -151 -4q-14 -61 -25 -115q-6 -25 -27.5 -39t-46 -9t-39 26.5t-8.5 46.5zM356 330q39 2 121 2q16 0 25 2q159 2 233 8q-8 35 -16 66q-90 360 -162 718q-27 -115 -65 -268q-12 -51 -31 -117 q-4 -16 -22.5 -88.5t-22.5 -87.5q-25 -100 -43 -168q-8 -37 -17 -67zM411 1701.5q-1 22.5 13 40t37 18.5t39 -15q4 -2 19.5 -16.5t19.5 -16.5q49 -45 71 -78q12 -20 7 -41.5t-23.5 -34t-41 -8.5t-34.5 25q-14 23 -53 57q-2 2 -17.5 15.5t-19.5 17.5q-16 14 -17 36.5z" />
<glyph unicode="&#xe1;" d="M182 115q25 123 72 311q18 70 43 170q4 14 22.5 87t22.5 87q16 68 31 119q88 350 127 557v2q-4 27 11 46t40 24q33 6 53 -19q25 -23 21 -55q61 -403 213 -1006q8 -35 36 -133q12 -51 21 -82q23 -82 33 -141q4 -25 -10.5 -45.5t-40 -25.5t-46 10.5t-24.5 39.5 q-10 55 -31 132q-2 14 -8 30q-2 0 -4 -2q-84 -8 -260 -10q-8 0 -25 -2q-104 -2 -151 -4q-14 -61 -25 -115q-6 -25 -27.5 -39t-46 -9t-39 26.5t-8.5 46.5zM356 330q39 2 121 2q16 0 25 2q159 2 233 8q-8 35 -16 66q-90 360 -162 718q-27 -115 -65 -268q-12 -51 -31 -117 q-4 -16 -22.5 -88.5t-22.5 -87.5q-25 -100 -43 -168q-8 -37 -17 -67zM508 1624.5q2 22.5 20 36.5q20 16 52 57q2 2 14 20.5t16 20.5q12 18 35 22.5t40 -9t21 -36t-10 -40.5q-2 -4 -14 -21.5t-16 -21.5q-39 -51 -70 -78q-16 -12 -38.5 -10t-37 19.5t-12.5 40z" />
<glyph unicode="&#xe2;" d="M182 115q25 123 72 311q18 70 43 170q4 14 22.5 87t22.5 87q16 68 31 119q88 350 127 557v2q-4 27 11 46t40 24q33 6 53 -19q25 -23 21 -55q61 -403 213 -1006q8 -35 36 -133q12 -51 21 -82q23 -82 33 -141q4 -25 -10.5 -45.5t-40 -25.5t-46 10.5t-24.5 39.5 q-10 55 -31 132q-2 14 -8 30q-2 0 -4 -2q-84 -8 -260 -10q-8 0 -25 -2q-104 -2 -151 -4q-14 -61 -25 -115q-6 -25 -27.5 -39t-46 -9t-39 26.5t-8.5 46.5zM356 330q39 2 121 2q16 0 25 2q159 2 233 8q-8 35 -16 66q-90 360 -162 718q-27 -115 -65 -268q-12 -51 -31 -117 q-4 -16 -22.5 -88.5t-22.5 -87.5q-25 -100 -43 -168q-8 -37 -17 -67zM403 1642q27 70 76 162q4 8 10 17q29 41 74 39q35 -2 64 -35q25 -29 53 -99q0 -4 4 -12t7 -16t5 -15l2 -6q10 -23 15 -30q10 -20 4 -43t-27.5 -34t-43 -4t-34.5 27q-6 12 -18 41l-4 11q-4 10 -8 21t-7 17 q-8 18 -14 33q-33 -61 -51 -112q-8 -23 -29.5 -32t-44 -1t-32 29.5t-1.5 41.5z" />
<glyph unicode="&#xe3;" d="M182 115q25 123 72 311q18 70 43 170q4 14 22.5 87t22.5 87q16 68 31 119q88 350 127 557v2q-4 27 11 46t40 24q33 6 53 -19q25 -23 21 -55q61 -403 213 -1006q8 -35 36 -133q12 -51 21 -82q23 -82 33 -141q4 -25 -10.5 -45.5t-40 -25.5t-46 10.5t-24.5 39.5 q-10 55 -31 132q-2 14 -8 30q-2 0 -4 -2q-84 -8 -260 -10q-8 0 -25 -2q-104 -2 -151 -4q-14 -61 -25 -115q-6 -25 -27.5 -39t-46 -9t-39 26.5t-8.5 46.5zM300 1677.5q-7 22.5 5 42.5q31 57 74 76q43 20 94 0q23 -10 49 -33q14 -12 39 -34q39 -39 53 -46q6 6 15 17l6 6l2 2 q2 2 2 4q8 6 12 12q10 12 19 21q16 16 39.5 16t40 -16t16.5 -40t-16 -40q-6 -6 -15 -16q-4 -4 -10 -11q-2 -2 -3 -4t-3 -2q-2 -4 -4 -6q-14 -16 -25 -27q-55 -55 -127 -16q-20 10 -43 31q-12 10 -37 33q-41 39 -55 45l-2 2h-2q-2 -2 -6 -4q-6 -8 -15 -23 q-12 -20 -33.5 -27.5t-42 4t-27.5 34zM356 330q39 2 121 2q16 0 25 2q159 2 233 8q-8 35 -16 66q-90 360 -162 718q-27 -115 -65 -268q-12 -51 -31 -117q-4 -16 -22.5 -88.5t-22.5 -87.5q-25 -100 -43 -168q-8 -37 -17 -67z" />
<glyph unicode="&#xe4;" d="M182 115q25 123 72 311q18 70 43 170q4 14 22.5 87t22.5 87q16 68 31 119q88 350 127 557v2q-4 27 11 46t40 24q33 6 53 -19q25 -23 21 -55q61 -403 213 -1006q8 -35 36 -133q12 -51 21 -82q23 -82 33 -141q4 -25 -10.5 -45.5t-40 -25.5t-46 10.5t-24.5 39.5 q-10 55 -31 132q-2 14 -8 30q-2 0 -4 -2q-84 -8 -260 -10q-8 0 -25 -2q-104 -2 -151 -4q-14 -61 -25 -115q-6 -25 -27.5 -39t-46 -9t-39 26.5t-8.5 46.5zM356 330q39 2 121 2q16 0 25 2q159 2 233 8q-8 35 -16 66q-90 360 -162 718q-27 -115 -65 -268q-12 -51 -31 -117 q-4 -16 -22.5 -88.5t-22.5 -87.5q-25 -100 -43 -168q-8 -37 -17 -67zM356 1696q-4 25 10.5 45t39.5 24q32 7 57 -18q37 -16 37 -57q0 -10 -2 -21q-2 -18 -13 -31q-25 -35 -63 -26q-23 4 -37 20q-23 23 -29 64zM571 1702q-4 25 10.5 46t39.5 26q34 6 57 -19q37 -16 37 -57 q0 -12 -2 -21q-2 -18 -13 -32q-23 -33 -63 -25q-20 4 -37 20q-20 23 -29 62z" />
<glyph unicode="&#xe5;" d="M182 115q25 123 72 311q18 70 43 170q4 14 22.5 87t22.5 87q16 68 31 119q88 350 127 557v2q-4 27 11 46t40 24q33 6 53 -19q25 -23 21 -55q61 -403 213 -1006q8 -35 36 -133q12 -51 21 -82q23 -82 33 -141q4 -25 -10.5 -45.5t-40 -25.5t-46 10.5t-24.5 39.5 q-10 55 -31 132q-2 14 -8 30q-2 0 -4 -2q-84 -8 -260 -10q-8 0 -25 -2q-104 -2 -151 -4q-14 -61 -25 -115q-6 -25 -27.5 -39t-46 -9t-39 26.5t-8.5 46.5zM356 330q39 2 121 2q16 0 25 2q159 2 233 8q-8 35 -16 66q-90 360 -162 718q-27 -115 -65 -268q-12 -51 -31 -117 q-4 -16 -22.5 -88.5t-22.5 -87.5q-25 -100 -43 -168q-8 -37 -17 -67zM410 1708q-8 68 24.5 121t93.5 65q86 20 142 -28q45 -41 49 -113q2 -66 -31 -119q-39 -63 -106 -73q-7 -2 -11 -2q-70 -4 -114 45q-41 41 -47 104zM512 1718q2 -29 18 -45q12 -14 37 -12q20 6 34.5 31.5 t14.5 56.5q-2 29 -16 41t-49 6q-20 -6 -31 -24q-12 -23 -8 -54z" />
<glyph unicode="&#xe6;" horiz-adv-x="1378" d="M182 115q25 123 72 311q18 70 43 170q4 14 22.5 87t22.5 87q16 68 31 119q88 350 127 557v2q-4 27 11 46t40 24q33 6 53 -19q25 -23 21 -55q49 -322 174 -844v121q4 244 8 432q4 205 10 229v6.5t-2 4.5q-4 27 10 47t41 24q78 14 150 9q90 -8 153 -52q23 -14 28 -38.5 t-9 -46t-40 -26.5t-46 9q-59 39 -166 31v-4q-2 -18 -2 -48q-2 -55 -4 -147q-4 -125 -6 -285q16 2 43 4q16 2 22 2q53 6 103 -6q25 -6 38 -27.5t8 -46t-26.5 -38t-46.5 -6.5q-31 6 -64 2q-6 0 -20 -2q-35 -4 -57 -5q-2 -12 -2 -24q-2 -256 0 -424q0 -92 2 -143v-19 q33 -4 88 -2q47 0 96 4q20 2 35 4q12 0 16 2q25 6 46.5 -7t27.5 -38.5t-7.5 -47t-37.5 -28.5q-47 -10 -174 -12q-63 -2 -105 2q-12 2 -22 4l-8 -4q-27 -4 -47.5 11.5t-24.5 39.5q-10 55 -31 132q-2 14 -8 30q-2 0 -4 -2q-84 -8 -260 -10q-8 0 -25 -2q-104 -2 -151 -4 q-14 -61 -25 -115q-6 -25 -27.5 -39t-46 -9t-39 26.5t-8.5 46.5zM356 330q39 2 121 2q16 0 25 2q159 2 233 8q-8 35 -16 66q-90 360 -162 718q-27 -115 -65 -268q-12 -51 -31 -117q-4 -16 -22.5 -88.5t-22.5 -87.5q-25 -100 -43 -168q-8 -37 -17 -67z" />
<glyph unicode="&#xe7;" horiz-adv-x="886" d="M102 625q-33 246 35 460q74 238 240 326q51 27 160 41q111 16 161 2q25 -6 38.5 -28.5t6 -47t-29.5 -37t-47 -6.5q-27 8 -113 -4t-119 -31q-121 -61 -180 -251q-59 -188 -29 -408q31 -225 142 -365q119 -150 299 -149q25 0 43 -18.5t18 -43t-18.5 -43t-42.5 -18.5 q-70 0 -136 19v-5v-16q35 -2 58 -22q76 -66 69 -179q-4 -57 -30.5 -101t-73.5 -62q-72 -29 -119 -27q-76 4 -123 74q-12 20 -8 42.5t23.5 36t42 8.5t37.5 -24q14 -23 34 -24q23 0 70 18q33 12 35 65.5t-27 81.5q-2 0 -6 2h-20q-20 4 -35 13q-20 12 -29 37q-4 12 -6 26 q-4 18 -4 49v43v11q-82 49 -148 131q-133 166 -168 424z" />
<glyph unicode="&#xe8;" horiz-adv-x="768" d="M188 285q-2 170 0 428q4 242 9 432q4 205 10 229v6t-2 4q-4 27 10 47.5t41 24.5q78 14 150 8q90 -8 153 -51q23 -14 28 -38.5t-9.5 -46t-40 -27t-45.5 9.5q-59 39 -166 30v-4q-2 -18 -2 -47q-2 -55 -5 -147q-4 -125 -6 -285q16 2 43 4q16 2 23 2q53 6 102 -6 q25 -6 38 -27.5t8 -46t-26.5 -38t-45.5 -7.5q-31 6 -64 2q-6 0 -20 -2q-35 -4 -58 -4q-2 -12 -2 -24q-2 -256 0 -424q0 -92 2 -144v-18q33 -4 88 -2q47 0 97 4q20 2 34 4q12 0 17 2q25 6 46 -7t27.5 -39t-7 -47.5t-37.5 -27.5q-47 -10 -175 -12q-63 -2 -104 2q-27 2 -45 8 q-12 4 -23 10q-20 12 -30 31q-6 14 -8 43q-2 16 -3 45q-2 53 -2 146zM228.5 1654.5q-1.5 22.5 14 39t38 17.5t38.5 -13q4 -2 19.5 -16.5t17.5 -16.5q49 -45 72 -80q12 -18 8 -39.5t-23.5 -34t-41 -8.5t-33.5 23q-14 23 -53 57q-2 2 -18.5 16.5t-20.5 18.5q-16 14 -17.5 36.5 z" />
<glyph unicode="&#xe9;" horiz-adv-x="768" d="M188 285q-2 170 0 428q4 242 9 432q4 205 10 229v6t-2 4q-4 27 10 47.5t41 24.5q78 14 150 8q90 -8 153 -51q23 -14 28 -38.5t-9.5 -46t-40 -27t-45.5 9.5q-59 39 -166 30v-4q-2 -18 -2 -47q-2 -55 -5 -147q-4 -125 -6 -285q16 2 43 4q16 2 23 2q53 6 102 -6 q25 -6 38 -27.5t8 -46t-26.5 -38t-45.5 -7.5q-31 6 -64 2q-6 0 -20 -2q-35 -4 -58 -4q-2 -12 -2 -24q-2 -256 0 -424q0 -92 2 -144v-18q33 -4 88 -2q47 0 97 4q20 2 34 4q12 0 17 2q25 6 46 -7t27.5 -39t-7 -47.5t-37.5 -27.5q-47 -10 -175 -12q-63 -2 -104 2q-27 2 -45 8 q-12 4 -23 10q-20 12 -30 31q-6 14 -8 43q-2 16 -3 45q-2 53 -2 146zM311 1566.5q2 22.5 21 37.5q20 16 51 57q2 2 14.5 20.5t16.5 20.5q12 18 34.5 22.5t40 -9t21.5 -36.5t-10 -41q-2 -4 -14.5 -21.5t-16.5 -21.5q-39 -51 -70 -77q-16 -12 -38.5 -10.5t-37 19t-12.5 40z " />
<glyph unicode="&#xea;" horiz-adv-x="768" d="M188 285q-2 170 0 428q4 242 9 432q4 205 10 229v6t-2 4q-4 27 10 47.5t41 24.5q78 14 150 8q90 -8 153 -51q23 -14 28 -38.5t-9.5 -46t-40 -27t-45.5 9.5q-59 39 -166 30v-4q-2 -18 -2 -47q-2 -55 -5 -147q-4 -125 -6 -285q16 2 43 4q16 2 23 2q53 6 102 -6 q25 -6 38 -27.5t8 -46t-26.5 -38t-45.5 -7.5q-31 6 -64 2q-6 0 -20 -2q-35 -4 -58 -4q-2 -12 -2 -24q-2 -256 0 -424q0 -92 2 -144v-18q33 -4 88 -2q47 0 97 4q20 2 34 4q12 0 17 2q25 6 46 -7t27.5 -39t-7 -47.5t-37.5 -27.5q-47 -10 -175 -12q-63 -2 -104 2q-27 2 -45 8 q-12 4 -23 10q-20 12 -30 31q-6 14 -8 43q-2 16 -3 45q-2 53 -2 146zM203 1610q27 70 76 162q4 8 10 16q29 41 73 39q35 -2 64 -35q25 -29 53 -98q0 -4 4 -12.5t7.5 -16.5t5.5 -14l2 -6q10 -23 14 -31q10 -20 4 -43t-27.5 -34t-43 -4t-33.5 28q-6 12 -19 41l-4 10 q-4 10 -8 21.5t-6 17.5q-8 18 -15 32q-33 -61 -51 -112q-8 -23 -29.5 -32t-44 -1t-31.5 30t-1 42z" />
<glyph unicode="&#xeb;" horiz-adv-x="768" d="M188 285q-2 170 0 428q4 242 9 432q4 205 10 229v6t-2 4q-4 27 10 47.5t41 24.5q78 14 150 8q90 -8 153 -51q23 -14 28 -38.5t-9.5 -46t-40 -27t-45.5 9.5q-59 39 -166 30v-4q-2 -18 -2 -47q-2 -55 -5 -147q-4 -125 -6 -285q16 2 43 4q16 2 23 2q53 6 102 -6 q25 -6 38 -27.5t8 -46t-26.5 -38t-45.5 -7.5q-31 6 -64 2q-6 0 -20 -2q-35 -4 -58 -4q-2 -12 -2 -24q-2 -256 0 -424q0 -92 2 -144v-18q33 -4 88 -2q47 0 97 4q20 2 34 4q12 0 17 2q25 6 46 -7t27.5 -39t-7 -47.5t-37.5 -27.5q-47 -10 -175 -12q-63 -2 -104 2q-27 2 -45 8 q-12 4 -23 10q-20 12 -30 31q-6 14 -8 43q-2 16 -3 45q-2 53 -2 146zM201 1618q-4 25 10 45t39 25q32 6 57 -19q37 -16 37 -57q0 -10 -2 -21q-2 -18 -12 -30q-25 -35 -64 -27q-23 4 -37 20q-23 23 -28 64zM414 1614q-4 25 10 45t39 24q32 7 57 -18q37 -16 37 -57 q0 -10 -2 -21q-2 -18 -12 -31q-25 -35 -64 -26q-23 4 -37 20q-23 23 -28 64z" />
<glyph unicode="&#xec;" horiz-adv-x="466" d="M83 1665q-1 23 13.5 40t37 18t38.5 -15q4 -2 19.5 -16.5t19.5 -16.5q49 -45 72 -78q12 -20 7 -41.5t-23.5 -34t-41 -8t-35.5 24.5q-14 23 -53 57q-2 2 -17.5 15.5t-19.5 17.5q-16 14 -17 37zM160 735q2 115 8 291q10 285 10 350q0 27 17.5 44.5t43 17.5t44 -17.5 t18.5 -44.5q0 -68 -10 -354q-6 -176 -8 -289q-10 -506 39 -655q8 -23 -4.5 -45.5t-36 -30.5t-46 3t-30.5 36q-55 168 -45 694z" />
<glyph unicode="&#xed;" horiz-adv-x="538" d="M160 735q2 115 8 291q10 285 10 350q0 27 17.5 44.5t43 17.5t44 -17.5t18.5 -44.5q0 -68 -10 -354q-6 -176 -8 -289q-10 -506 39 -655q8 -23 -4.5 -45.5t-36 -30.5t-46 3t-30.5 36q-55 168 -45 694zM197 1570.5q2 22.5 20 37.5q20 16 51 57q2 2 14.5 20.5t16.5 20.5 q12 18 34.5 22.5t40 -9t21.5 -36.5t-10 -41q-2 -4 -14.5 -21t-16.5 -22q-39 -51 -69 -77q-16 -12 -39 -10.5t-37 19t-12 40z" />
<glyph unicode="&#xee;" horiz-adv-x="542" d="M84 1569q27 70 76 162q4 8 10 16q29 41 74 39q35 -2 63 -35q25 -29 53 -98q0 -4 4.5 -12.5t7.5 -16.5t5 -14l2 -6q10 -23 14 -31q10 -20 4 -43t-27.5 -34t-43 -4t-33.5 28q-6 12 -19 41l-4 10q-4 10 -8 21.5t-6 17.5q-8 18 -14 32q-33 -61 -52 -112q-8 -23 -29.5 -32 t-44 -1t-31.5 30t-1 42zM160 735q2 115 8 291q10 285 10 350q0 27 17.5 44.5t43 17.5t44 -17.5t18.5 -44.5q0 -68 -10 -354q-6 -176 -8 -289q-10 -506 39 -655q8 -23 -4.5 -45.5t-36 -30.5t-46 3t-30.5 36q-55 168 -45 694z" />
<glyph unicode="&#xef;" horiz-adv-x="559" d="M82 1602q-4 25 10 45t39 24q32 7 57 -18q37 -16 37 -58q0 -10 -2 -20q-2 -18 -12 -31q-25 -35 -64 -26q-23 4 -36 20q-23 23 -29 64zM160 735q2 115 8 291q10 285 10 350q0 27 17.5 44.5t43 17.5t44 -17.5t18.5 -44.5q0 -68 -10 -354q-6 -176 -8 -289q-10 -506 39 -655 q8 -23 -4.5 -45.5t-36 -30.5t-46 3t-30.5 36q-55 168 -45 694zM274 1597q-4 25 10.5 45.5t39.5 24.5q32 7 57 -18q37 -16 37 -58q0 -10 -2 -20q-2 -18 -13 -31q-25 -35 -63 -27q-23 4 -37 21q-23 23 -29 63z" />
<glyph unicode="&#xf0;" horiz-adv-x="1032" d="M98 1560.5q8 24.5 31 36t45 5.5q86 -27 180 -82q51 47 97 77q20 14 45.5 9.5t40 -26t9.5 -46.5t-28 -39q-29 -18 -57 -45q59 -41 112 -90q188 -170 254 -348q57 -131 62 -314q6 -248 -78 -452q-96 -236 -268 -283q-10 -2 -21 -2q-184 -16 -299 164q-96 152 -112 391 q-16 231 51 420q80 219 241 274q66 23 127 23q-20 18 -38 35q-57 53 -121 96q-45 -43 -76 -70q-18 -16 -44 -14t-42 21.5t-14 45t20 42.5q20 18 47 43q-66 35 -123 51q-25 8 -37 30.5t-4 47zM233 524q14 -207 95 -331q76 -123 190 -107h2q106 35 178 207q74 182 68 401 q-2 119 -31 213q-8 10 -12 23q-4 18 -10 37q-16 37 -37 63q-84 113 -234 64q-106 -35 -163 -201q-59 -164 -46 -369z" />
<glyph unicode="&#xf1;" horiz-adv-x="995" d="M143 657q2 188 11 351v10q4 74 6 108q4 84 4 148q0 45 2 96v31q2 4 2 8v4q0 31 25.5 47.5t54.5 7.5q27 -8 49 -41q12 -16 29 -47q27 -53 69 -147q72 -166 176 -436q72 -190 142 -383q-6 150 -6 334v231v229v17v6v10v4q2 70 0 113q0 31 -3.5 56.5t13 45t42 21.5t45 -14.5 t21.5 -41.5q2 -29 4 -63q2 -47 0 -119v-6v-8v-6v-15v-229v-231q0 -281 17 -500q8 -92 8 -258q0 -25 -18.5 -43.5t-42.5 -18.5q-41 0 -58 37q-4 8 -6 17q-53 199 -272 772q-100 262 -172 424q0 -27 -2 -58q-2 -35 -7 -108v-13q-8 -158 -10 -342q0 -164 8 -505q2 -90 2 -140 q0 -27 -17 -45t-43 -18t-44 17t-18 42q0 51 -2 139q-8 346 -9 510zM231 1647.5q-7 23.5 5 46.5q35 63 79 84q49 23 105 0q25 -12 55 -35q14 -14 43 -41q43 -41 57 -49q8 6 19 18l6 6q0 2 2 4t4 2q6 8 12 15q10 12 21 22q18 18 44 18.5t43 -18t17 -43t-18 -43.5 q-6 -8 -16 -18q-4 -4 -11 -12q-2 -2 -3 -4.5t-3 -2.5l-6 -6q-14 -18 -27 -28q-61 -61 -139 -19q-23 10 -47 33q-12 10 -41 37q-43 43 -61 51h-4h-2q-2 -2 -5 -4q-8 -8 -16 -25q-12 -23 -36.5 -30t-47 5.5t-29.5 36z" />
<glyph unicode="&#xf2;" horiz-adv-x="1032" d="M111 631q-16 276 51 499q76 260 237 326q119 47 215.5 13.5t161.5 -140.5q106 -172 113 -479q6 -293 -76 -537q-96 -283 -266 -338q-13 -4 -25 -2q-94 -10 -174 43q-74 51 -127 154q-94 178 -110 461zM233 639q14 -256 97 -412q39 -76 88 -108q45 -31 100 -23 q106 43 178 256q76 223 70 494q-6 276 -94 420q-82 135 -226 77q-106 -45 -167 -247q-59 -203 -46 -457zM370 1677q-1 23 13 40.5t37 18t39 -15.5q4 -2 19.5 -16t19.5 -16q49 -45 71 -78q12 -20 7 -42t-23 -34t-41 -8t-35 24q-14 23 -53 58q-2 2 -17.5 15t-19.5 17 q-16 14 -17 37z" />
<glyph unicode="&#xf3;" horiz-adv-x="1032" d="M111 631q-16 276 51 499q76 260 237 326q119 47 215.5 13.5t161.5 -140.5q106 -172 113 -479q6 -293 -76 -537q-96 -283 -266 -338q-13 -4 -25 -2q-94 -10 -174 43q-74 51 -127 154q-94 178 -110 461zM233 639q14 -256 97 -412q39 -76 88 -108q45 -31 100 -23 q106 43 178 256q76 223 70 494q-6 276 -94 420q-82 135 -226 77q-106 -45 -167 -247q-59 -203 -46 -457zM446.5 1599.5q2.5 22.5 20.5 36.5q20 16 51 58q2 2 14.5 20.5t16.5 20.5q12 18 34.5 22t40 -9t21.5 -36t-10 -41q-2 -4 -14.5 -21.5t-16.5 -21.5q-39 -51 -69 -78 q-16 -12 -39 -10t-37.5 19.5t-12 40z" />
<glyph unicode="&#xf4;" horiz-adv-x="1032" d="M111 631q-16 276 51 499q76 260 237 326q119 47 215.5 13.5t161.5 -140.5q106 -172 113 -479q6 -293 -76 -537q-96 -283 -266 -338q-13 -4 -25 -2q-94 -10 -174 43q-74 51 -127 154q-94 178 -110 461zM233 639q14 -256 97 -412q39 -76 88 -108q45 -31 100 -23 q106 43 178 256q76 223 70 494q-6 276 -94 420q-82 135 -226 77q-106 -45 -167 -247q-59 -203 -46 -457zM342 1614q27 70 76 162q4 8 10 16q29 41 74 39q35 -2 63 -35q25 -29 53 -98q0 -4 4.5 -12.5t7.5 -16.5t5 -14l2 -6q10 -23 14 -31q10 -20 4 -43t-27.5 -34t-43 -4 t-33.5 28q-6 12 -19 41l-4 10q-4 10 -8 21.5t-6 17.5q-8 18 -14 33q-33 -61 -51 -113q-8 -23 -30 -32t-44.5 -1t-31.5 30t-1 42z" />
<glyph unicode="&#xf5;" horiz-adv-x="1032" d="M111 631q-16 276 51 499q76 260 237 326q119 47 215.5 13.5t161.5 -140.5q106 -172 113 -479q6 -293 -76 -537q-96 -283 -266 -338q-13 -4 -25 -2q-94 -10 -174 43q-74 51 -127 154q-94 178 -110 461zM233 639q14 -256 97 -412q39 -76 88 -108q45 -31 100 -23 q106 43 178 256q76 223 70 494q-6 276 -94 420q-82 135 -226 77q-106 -45 -167 -247q-59 -203 -46 -457zM292 1636.5q-7 22.5 5 42.5q31 57 74 76q43 20 94 0q23 -10 49 -33q14 -12 39 -34q39 -39 53 -46q6 6 15 17l6 6l2 2q2 2 2 4q8 6 12 12q10 12 19 21q16 16 39.5 16 t40 -16t16.5 -40t-17 -40q-6 -6 -14 -16q-4 -4 -10 -11q-2 -2 -3 -4t-3 -2q-2 -4 -4 -6q-14 -16 -25 -26q-55 -55 -127 -17q-20 10 -43 31q-12 10 -37 33q-41 39 -55 45l-2 2h-2q-2 -2 -6 -4q-6 -8 -15 -23q-12 -20 -33.5 -27.5t-42 4t-27.5 34z" />
<glyph unicode="&#xf6;" horiz-adv-x="1032" d="M111 631q-16 276 51 499q76 260 237 326q119 47 215.5 13.5t161.5 -140.5q106 -172 113 -479q6 -293 -76 -537q-96 -283 -266 -338q-13 -4 -25 -2q-94 -10 -174 43q-74 51 -127 154q-94 178 -110 461zM233 639q14 -256 97 -412q39 -76 88 -108q45 -31 100 -23 q106 43 178 256q76 223 70 494q-6 276 -94 420q-82 135 -226 77q-106 -45 -167 -247q-59 -203 -46 -457zM332 1647q-4 25 10 45t39 24q32 7 57 -18q37 -16 37 -58q0 -10 -2 -20q-2 -18 -12 -31q-25 -35 -64 -26q-23 4 -37 20q-23 23 -28 64zM551 1657q-4 25 10 46t39 26 q34 6 57 -19q37 -16 37 -57q0 -12 -2 -21q-2 -18 -12 -33q-23 -33 -64 -24q-20 4 -36 20q-20 23 -29 62z" />
<glyph unicode="&#xf7;" horiz-adv-x="909" d="M162 787.5q-2 25.5 15 44t42 20.5q57 4 164 6h2q201 6 311 21q27 4 46.5 -11.5t23.5 -40t-11.5 -45t-39.5 -24.5q-119 -16 -326 -23h-2q-104 -2 -160 -6q-25 0 -44 16.5t-21 42zM369 1030q-6 29 10 52.5t45 27.5q36 9 63 -20q41 -18 41 -64q0 -12 -2 -22q-4 -18 -14 -35 q-27 -37 -72 -29q-25 4 -41 23q-23 25 -30 67zM393 567q-6 29 10.5 52.5t45.5 27.5q36 9 63 -20q41 -18 41 -64q0 -12 -2 -22q-4 -18 -14 -35q-27 -37 -72 -29q-25 4 -41 23q-23 25 -31 67z" />
<glyph unicode="&#xf8;" horiz-adv-x="1060" d="M91 117.5q-5 25.5 9 46.5q27 41 72 119q-51 154 -61 348q-16 276 51 499q76 260 237 326q113 45 204 17.5t157 -119.5q37 68 43 82q12 20 36.5 28.5t47 -4t29.5 -37t-5 -47.5l-55 -102q-14 -29 -29 -53q57 -156 62 -371q6 -293 -76 -537q-96 -283 -266 -338 q-12 -4 -25 -2q-94 -10 -174 43q-66 45 -115 129q-18 -29 -30 -49q-14 -20 -39 -25t-46.5 8t-26.5 38.5zM233 639q7 -109 27 -205q76 135 180 328q8 16 17 31q94 172 209 387q14 25 26 47q-10 20 -20 39q-82 135 -226 77q-106 -45 -167 -247q-59 -203 -46 -457zM307 272 q10 -25 23 -45q39 -76 88 -108q45 -31 100 -23q106 43 178 256q76 223 70 494q-2 119 -23 217q-96 -180 -178 -330q-8 -14 -16 -31q-150 -272 -242 -430z" />
<glyph unicode="&#xf9;" horiz-adv-x="864" d="M139 739q4 162 23 381q0 4 4 39t7 74l6 78t5 49q2 27 20.5 43t44 14t43 -20t15.5 -45q-2 -12 -5 -51t-7 -78t-7 -75t-3 -38q-18 -217 -23 -373q-6 -305 41 -465q27 -88 68 -125q37 -37 90 -30q31 4 63 30q43 33 57.5 86.5t16.5 141.5q2 68 -4 182q0 16 -2 47v6q-2 4 -2 6 v13q-2 25 -2 47q-10 227 0 534q0 16 2 69.5t2 59.5q0 25 18.5 42.5t44 16.5t43 -19.5t17.5 -43.5q0 -6 -2 -59t-2 -70q-10 -301 0 -524q0 -23 2 -47v-12v-7q2 -2 2 -6q0 -29 2 -45q6 -121 4 -192q-2 -104 -21 -174q-27 -90 -100 -148q-59 -49 -125 -55q-111 -12 -190 61 q-63 61 -99 181q-53 178 -47 501zM292 1619.5q-1 22.5 13 40t37 18.5t39 -15q4 -2 19.5 -16.5t19.5 -16.5q49 -45 72 -78q12 -20 7 -41.5t-23.5 -34t-41 -8t-35.5 24.5q-14 23 -53 57q-2 2 -17.5 15.5t-19.5 17.5q-16 14 -17 36.5z" />
<glyph unicode="&#xfa;" horiz-adv-x="864" d="M139 739q4 162 23 381q0 4 4 39t7 74l6 78t5 49q2 27 20.5 43t44 14t43 -20t15.5 -45q-2 -12 -5 -51t-7 -78t-7 -75t-3 -38q-18 -217 -23 -373q-6 -305 41 -465q27 -88 68 -125q37 -37 90 -30q31 4 63 30q43 33 57.5 86.5t16.5 141.5q2 68 -4 182q0 16 -2 47v6q-2 4 -2 6 v13q-2 25 -2 47q-10 227 0 534q0 16 2 69.5t2 59.5q0 25 18.5 42.5t44 16.5t43 -19.5t17.5 -43.5q0 -6 -2 -59t-2 -70q-10 -301 0 -524q0 -23 2 -47v-12v-7q2 -2 2 -6q0 -29 2 -45q6 -121 4 -192q-2 -104 -21 -174q-27 -90 -100 -148q-59 -49 -125 -55q-111 -12 -190 61 q-63 61 -99 181q-53 178 -47 501zM418 1521.5q2 22.5 20 37.5q20 16 51 57q2 2 14.5 20.5t16.5 20.5q12 18 35 22t40 -9t21 -36t-10 -41q-2 -4 -14 -21.5t-17 -21.5q-39 -51 -69 -77q-16 -12 -39 -10.5t-37 19t-12 40z" />
<glyph unicode="&#xfb;" horiz-adv-x="864" d="M139 739q4 162 23 381q0 4 4 39t7 74l6 78t5 49q2 27 20.5 43t44 14t43 -20t15.5 -45q-2 -12 -5 -51t-7 -78t-7 -75t-3 -38q-18 -217 -23 -373q-6 -305 41 -465q27 -88 68 -125q37 -37 90 -30q31 4 63 30q43 33 57.5 86.5t16.5 141.5q2 68 -4 182q0 16 -2 47v2q0 2 -1 4 t-1 3v3v13q-2 25 -2 47q-10 227 0 534q0 16 2 69.5t2 59.5q0 25 18.5 42.5t44 16.5t43 -19.5t17.5 -43.5q0 -6 -2 -59t-2 -70q-10 -301 0 -524q0 -23 2 -47v-12v-7q2 -2 2 -6q0 -29 2 -45q6 -121 4 -192q-2 -104 -21 -174q-27 -90 -100 -148q-59 -49 -125 -55 q-111 -12 -190 61q-63 61 -99 181q-53 178 -47 501zM305 1540q27 70 76 162q4 8 10 16q29 41 74 39q35 -2 63 -35q25 -29 54 -98q0 -4 4 -12t7 -16.5t5 -14.5l2 -6q10 -23 14 -31q10 -20 4 -42.5t-27.5 -34t-43 -4.5t-33.5 28q-6 12 -18 41l-4 10q-4 10 -8.5 21.5t-6.5 17.5 q-8 18 -14 33q-33 -61 -51 -113q-8 -23 -30 -32t-44.5 -0.5t-31.5 30t-1 41.5z" />
<glyph unicode="&#xfc;" horiz-adv-x="864" d="M139 739q4 162 23 381q0 4 4 39t7 74l6 78t5 49q2 27 20.5 43t44 14t43 -20t15.5 -45q-2 -12 -5 -51t-7 -78t-7 -75t-3 -38q-18 -217 -23 -373q-6 -305 41 -465q27 -88 68 -125q37 -37 90 -30q31 4 63 30q43 33 57.5 86.5t16.5 141.5q2 68 -4 182q0 16 -2 47v6q-2 4 -2 6 v13q-2 25 -2 47q-10 227 0 534q0 16 2 69.5t2 59.5q0 25 18.5 42.5t44 16.5t43 -19.5t17.5 -43.5q0 -6 -2 -59t-2 -70q-10 -301 0 -524q0 -23 2 -47v-12v-7q2 -2 2 -6q0 -29 2 -45q6 -121 4 -192q-2 -104 -21 -174q-27 -90 -100 -148q-59 -49 -125 -55q-111 -12 -190 61 q-63 61 -99 181q-53 178 -47 501zM258 1548q-4 25 10.5 45.5t38.5 24.5q33 6 58 -19q37 -16 36 -57q0 -10 -2 -20q-2 -18 -12 -31q-25 -35 -63 -27q-23 4 -37 21q-23 23 -29 63zM489 1546q-4 25 10.5 46.5t39.5 25.5q34 6 57 -19q37 -16 37 -57q0 -12 -2 -20q-2 -18 -13 -33 q-23 -33 -63 -25q-20 4 -37 21q-20 23 -29 61z" />
<glyph unicode="&#xfd;" horiz-adv-x="974" d="M92 1405q-8 25 2 47.5t34 31.5t47.5 -1t31.5 -35q2 -2 13 -33t24.5 -64.5t17.5 -47.5q31 -80 53 -136q74 -188 138 -325q2 -2 2 -6q18 35 45 92q51 109 71 149q96 209 140 375q6 25 27.5 38t46 7t38 -27.5t6.5 -46.5q-45 -178 -147 -397q-18 -43 -72 -152 q-47 -96 -73 -155q-10 -23 -21 -45l-2 -2q0 -61 -2 -158q-4 -113 -4 -156q-2 -150 16 -292q2 -25 -13 -45.5t-41 -23.5t-46.5 13.5t-22.5 40.5q-18 152 -16 307q0 47 4 160q2 102 4 168q-27 51 -51 105q-68 139 -141 331q-23 57 -54 138q-4 14 -17 46.5t-24.5 64.5t-13.5 34 zM414 1554.5q2 22.5 20 36.5q20 16 51 58q2 2 14.5 20.5t16.5 20.5q12 18 34.5 22t40 -9t21.5 -36t-10 -41q-2 -4 -14.5 -21.5t-16.5 -21.5q-39 -51 -69 -78q-16 -12 -39 -10t-37 19.5t-12 40z" />
<glyph unicode="&#xff;" horiz-adv-x="974" d="M92 1405q-8 25 2 47.5t34 31.5t47.5 -1t31.5 -35q2 -2 13 -33t24.5 -64.5t17.5 -47.5q31 -80 53 -136q74 -188 138 -325q2 -2 2 -6q18 35 45 92q51 109 71 149q96 209 140 375q6 25 27.5 38t46 7t38 -27.5t6.5 -46.5q-45 -178 -147 -397q-18 -43 -72 -152 q-47 -96 -73 -155q-10 -23 -21 -45l-2 -2q0 -61 -2 -158q-4 -113 -4 -156q-2 -150 16 -292q2 -25 -13 -45.5t-41 -23.5t-46.5 13.5t-22.5 40.5q-18 152 -16 307q0 47 4 160q2 102 4 168q-27 51 -51 105q-68 139 -141 331q-23 57 -54 138q-4 14 -17 46.5t-24.5 64.5t-13.5 34 zM262 1671q-4 25 10.5 45.5t38.5 24.5q33 6 58 -19q37 -16 37 -57q0 -10 -3 -20q-2 -18 -12 -31q-25 -35 -63 -27q-23 4 -37 21q-23 23 -29 63zM508 1675q-4 25 10 45.5t39 24.5q32 6 57 -19q37 -16 37 -57q0 -10 -2 -20q-2 -18 -12 -31q-25 -35 -64 -27q-23 4 -36 21 q-23 23 -29 63z" />
<glyph unicode="&#x2000;" horiz-adv-x="949" />
<glyph unicode="&#x2001;" horiz-adv-x="1899" />
<glyph unicode="&#x2002;" horiz-adv-x="949" />
<glyph unicode="&#x2003;" horiz-adv-x="1899" />
<glyph unicode="&#x2004;" horiz-adv-x="633" />
<glyph unicode="&#x2005;" horiz-adv-x="474" />
<glyph unicode="&#x2006;" horiz-adv-x="316" />
<glyph unicode="&#x2007;" horiz-adv-x="316" />
<glyph unicode="&#x2008;" horiz-adv-x="237" />
<glyph unicode="&#x2009;" horiz-adv-x="379" />
<glyph unicode="&#x200a;" horiz-adv-x="105" />
<glyph unicode="&#x2010;" horiz-adv-x="776" d="M135 772.5q-2 24.5 14.5 44t43.5 21.5q43 4 126 6q2 0 3 2q156 4 241 20q25 4 45.5 -11t25.5 -39.5t-10.5 -45t-39.5 -27.5q-61 -10 -133 -16q-43 -2 -125 -4q-82 -4 -125 -6q-25 -2 -44.5 14.5t-21.5 41z" />
<glyph unicode="&#x2011;" horiz-adv-x="776" d="M135 772.5q-2 24.5 14.5 44t43.5 21.5q43 4 126 6q2 0 3 2q156 4 241 20q25 4 45.5 -11t25.5 -39.5t-10.5 -45t-39.5 -27.5q-61 -10 -133 -16q-43 -2 -125 -4q-82 -4 -125 -6q-25 -2 -44.5 14.5t-21.5 41z" />
<glyph unicode="&#x2012;" horiz-adv-x="776" d="M135 772.5q-2 24.5 14.5 44t43.5 21.5q43 4 126 6q2 0 3 2q156 4 241 20q25 4 45.5 -11t25.5 -39.5t-10.5 -45t-39.5 -27.5q-61 -10 -133 -16q-43 -2 -125 -4q-82 -4 -125 -6q-25 -2 -44.5 14.5t-21.5 41z" />
<glyph unicode="&#x2013;" horiz-adv-x="1297" d="M134.5 772.5q-4.5 24.5 29.5 44t89 21.5q88 4 258 6q4 0 6 2q319 4 493 20q51 4 93 -11t52.5 -39.5t-21.5 -45t-81 -27.5q-125 -10 -272 -16q-88 -2 -256 -4q-168 -4 -256 -6q-51 -2 -90.5 14.5t-44 41z" />
<glyph unicode="&#x2014;" horiz-adv-x="2321" d="M135 772.5q-8 24.5 59.5 44t177.5 21.5q176 4 516 6q8 0 12 2q639 4 986 20q103 4 187 -11t104 -39.5t-43 -45t-162 -27.5q-249 -10 -544 -16q-176 -2 -511 -4q-336 -4 -512 -6q-102 -2 -182 14.5t-88 41z" />
<glyph unicode="&#x2018;" horiz-adv-x="382" d="M100 1413q0 27 19.5 43.5t45 15t42 -20.5t14.5 -46q-6 -90 17 -172q6 -25 -6.5 -46.5t-37 -28.5t-46 5.5t-29.5 36.5q-27 102 -19 213z" />
<glyph unicode="&#x2019;" horiz-adv-x="380" d="M106 1399q-4 27 10.5 47t40 24.5t46 -10t24.5 -39.5q18 -104 2 -213q-4 -27 -24.5 -41t-45 -11t-39.5 23.5t-11 47.5q14 90 -3 172z" />
<glyph unicode="&#x201c;" horiz-adv-x="647" d="M100 1413q0 27 19.5 43.5t45 15t42 -20.5t14.5 -46q-6 -90 17 -172q6 -25 -6.5 -46.5t-37 -28.5t-46 5.5t-29.5 36.5q-27 102 -19 213zM350 1436q-2 25 15.5 44t43 20t44 -16t20.5 -42q4 -63 8 -96q6 -45 19 -82q10 -25 -1.5 -47.5t-35 -31.5t-47 2t-31.5 34 q-18 49 -27 110q-4 35 -8 105z" />
<glyph unicode="&#x201d;" horiz-adv-x="638" d="M106 1399q-4 27 10.5 47t40 24.5t46 -10t24.5 -39.5q18 -104 2 -213q-4 -27 -24.5 -41t-45 -11t-39.5 23.5t-11 47.5q14 90 -3 172zM362 1425q-6 25 7.5 46.5t38 27.5t46 -7t27.5 -38q14 -51 15 -111q2 -37 -2 -104q-2 -27 -20.5 -43t-44.5 -15t-43 19t-15 45q4 63 2 94 q0 47 -11 86z" />
<glyph unicode="&#x202f;" horiz-adv-x="379" />
<glyph unicode="&#x205f;" horiz-adv-x="474" />
<glyph unicode="&#x20ac;" horiz-adv-x="1097" d="M119 662.5q2 25.5 21.5 42t43.5 14.5q90 -6 176 -10q-2 27 -2 55v51q-86 4 -178 10q-25 2 -42 21.5t-15 45.5t21.5 42t43.5 14q94 -6 181 -10q27 207 112 342q74 119 184.5 160t247.5 -2q25 -8 36.5 -31t3 -47.5t-31 -35.5t-47.5 -3q-184 59 -290 -107q-68 -109 -92 -282 q111 -4 208 -4q27 0 44.5 -17.5t17.5 -43t-17.5 -44t-44.5 -18.5q-104 0 -219 4v-45q0 -31 2 -62q113 -4 213 -4q27 0 44.5 -17t17.5 -43t-17.5 -44.5t-44.5 -18.5q-96 0 -200 5q27 -162 90 -267q47 -80 108 -108q59 -27 135 2q23 10 46.5 0t33 -33.5t-1 -47.5t-33.5 -34 q-125 -47 -231 2q-94 43 -162 156q-82 133 -110 334q-92 6 -195 12q-25 2 -42 21.5t-15 45z" />
<glyph unicode="&#x25fc;" horiz-adv-x="1515" d="M0 0v1516h1516v-1516h-1516z" />
</font>
</defs>
</svg>
